<?xml version="1.0" encoding="UTF-8" standalone="no"?>
<!DOCTYPE svg PUBLIC "-//W3C//DTD SVG 1.1//EN"
 "http://www.w3.org/Graphics/SVG/1.1/DTD/svg11.dtd">
<!-- Generated by graphviz version 2.40.1 (20161225.0304)
 -->
<!-- Title: packages Pages: 1 -->
<svg width="1238pt" height="764pt"
 viewBox="0.00 0.00 1238.00 764.00" xmlns="http://www.w3.org/2000/svg" xmlns:xlink="http://www.w3.org/1999/xlink">
<g id="graph0" class="graph" transform="scale(1 1) rotate(0) translate(4 760)">
<title>packages</title>
<polygon fill="#ffffff" stroke="transparent" points="-4,4 -4,-760 1234,-760 1234,4 -4,4"/>
<!-- 0 -->
<g id="node1" class="node">
<title>0</title>
<polygon fill="none" stroke="#000000" points="706.5,-36 615.5,-36 615.5,0 706.5,0 706.5,-36"/>
<text text-anchor="middle" x="661" y="-14.3" font-family="Times,serif" font-size="14.00" fill="#000000">metadynamic</text>
</g>
<!-- 2 -->
<g id="node3" class="node">
<title>2</title>
<polygon fill="none" stroke="#000000" points="607,-324 463,-324 463,-288 607,-288 607,-324"/>
<text text-anchor="middle" x="535" y="-302.3" font-family="Times,serif" font-size="14.00" fill="#000000">metadynamic.chemical</text>
</g>
<!-- 0&#45;&gt;2 -->
<g id="edge1" class="edge">
<title>0&#45;&gt;2</title>
<path fill="none" stroke="#000000" d="M653.1181,-36.0157C631.7277,-84.9081 572.4843,-220.3215 546.9569,-278.67"/>
<polygon fill="#000000" stroke="#000000" points="542.8789,-287.9911 542.7644,-277.0258 544.883,-283.4103 546.8871,-278.8295 546.8871,-278.8295 546.8871,-278.8295 544.883,-283.4103 551.0098,-280.6332 542.8789,-287.9911 542.8789,-287.9911"/>
</g>
<!-- 8 -->
<g id="node9" class="node">
<title>8</title>
<polygon fill="none" stroke="#000000" points="830.5,-108 689.5,-108 689.5,-72 830.5,-72 830.5,-108"/>
<text text-anchor="middle" x="760" y="-86.3" font-family="Times,serif" font-size="14.00" fill="#000000">metadynamic.launcher</text>
</g>
<!-- 0&#45;&gt;8 -->
<g id="edge2" class="edge">
<title>0&#45;&gt;8</title>
<path fill="none" stroke="#000000" d="M685.9819,-36.1686C698.2928,-45.1221 713.3107,-56.0442 726.5937,-65.7045"/>
<polygon fill="#000000" stroke="#000000" points="735.0261,-71.8372 724.2919,-69.5947 730.9824,-68.8963 726.9387,-65.9554 726.9387,-65.9554 726.9387,-65.9554 730.9824,-68.8963 729.5855,-62.3161 735.0261,-71.8372 735.0261,-71.8372"/>
</g>
<!-- 9 -->
<g id="node10" class="node">
<title>9</title>
<polygon fill="none" stroke="#000000" points="568.5,-540 439.5,-540 439.5,-504 568.5,-504 568.5,-540"/>
<text text-anchor="middle" x="504" y="-518.3" font-family="Times,serif" font-size="14.00" fill="#000000">metadynamic.logger</text>
</g>
<!-- 0&#45;&gt;9 -->
<g id="edge3" class="edge">
<title>0&#45;&gt;9</title>
<path fill="none" stroke="#000000" d="M639.7088,-36.2379C594.8082,-76.2853 491.4724,-177.2156 454,-288 432.8965,-350.3909 473.3907,-368.0131 489,-432 493.9977,-452.4869 497.8539,-476.0045 500.4043,-493.8606"/>
<polygon fill="#000000" stroke="#000000" points="501.7879,-503.9112 495.9661,-494.6184 501.106,-498.9579 500.4241,-494.0046 500.4241,-494.0046 500.4241,-494.0046 501.106,-498.9579 504.882,-493.3909 501.7879,-503.9112 501.7879,-503.9112"/>
</g>
<!-- 10 -->
<g id="node11" class="node">
<title>10</title>
<polygon fill="none" stroke="#000000" points="410,-684 294,-684 294,-648 410,-648 410,-684"/>
<text text-anchor="middle" x="352" y="-662.3" font-family="Times,serif" font-size="14.00" fill="#000000">metadynamic.mpi</text>
</g>
<!-- 0&#45;&gt;10 -->
<g id="edge4" class="edge">
<title>0&#45;&gt;10</title>
<path fill="none" stroke="#000000" d="M615.4417,-18.7838C471.8227,-22.4719 38,-43.426 38,-162 38,-162 38,-162 38,-450 38,-568.4239 191.4799,-626.8378 283.8334,-651.2675"/>
<polygon fill="#000000" stroke="#000000" points="293.6749,-653.8038 282.8682,-655.6657 288.8331,-652.556 283.9913,-651.3081 283.9913,-651.3081 283.9913,-651.3081 288.8331,-652.556 285.1144,-646.9505 293.6749,-653.8038 293.6749,-653.8038"/>
</g>
<!-- 14 -->
<g id="node15" class="node">
<title>14</title>
<polygon fill="none" stroke="#000000" points="1054.5,-252 929.5,-252 929.5,-216 1054.5,-216 1054.5,-252"/>
<text text-anchor="middle" x="992" y="-230.3" font-family="Times,serif" font-size="14.00" fill="#000000">metadynamic.result</text>
</g>
<!-- 0&#45;&gt;14 -->
<g id="edge5" class="edge">
<title>0&#45;&gt;14</title>
<path fill="none" stroke="#000000" d="M706.8515,-25.1426C744.4992,-32.5371 798.0861,-46.6754 839,-72 897.0711,-107.9445 947.8099,-171.354 973.7132,-207.2548"/>
<polygon fill="#000000" stroke="#000000" points="979.753,-215.756 970.2928,-210.2103 976.8571,-211.68 973.9612,-207.604 973.9612,-207.604 973.9612,-207.604 976.8571,-211.68 977.6296,-204.9977 979.753,-215.756 979.753,-215.756"/>
</g>
<!-- 16 -->
<g id="node17" class="node">
<title>16</title>
<polygon fill="none" stroke="#000000" points="777.5,-180 644.5,-180 644.5,-144 777.5,-144 777.5,-180"/>
<text text-anchor="middle" x="711" y="-158.3" font-family="Times,serif" font-size="14.00" fill="#000000">metadynamic.system</text>
</g>
<!-- 0&#45;&gt;16 -->
<g id="edge6" class="edge">
<title>0&#45;&gt;16</title>
<path fill="none" stroke="#000000" d="M663.1201,-36.0595C665.6809,-54.5751 670.8323,-83.9793 680,-108 683.5101,-117.1968 688.4454,-126.6835 693.348,-135.0901"/>
<polygon fill="#000000" stroke="#000000" points="698.586,-143.7235 689.5515,-137.5081 695.9924,-139.4487 693.3988,-135.1739 693.3988,-135.1739 693.3988,-135.1739 695.9924,-139.4487 697.2461,-132.8397 698.586,-143.7235 698.586,-143.7235"/>
</g>
<!-- 17 -->
<g id="node18" class="node">
<title>17</title>
<polygon fill="none" stroke="#000000" points="1141,-684 1007,-684 1007,-648 1141,-648 1141,-684"/>
<text text-anchor="middle" x="1074" y="-662.3" font-family="Times,serif" font-size="14.00" fill="#000000">metadynamic.version</text>
</g>
<!-- 0&#45;&gt;17 -->
<g id="edge7" class="edge">
<title>0&#45;&gt;17</title>
<path fill="none" stroke="#000000" d="M706.6018,-19.7726C841.6234,-26.2485 1230,-54.2417 1230,-162 1230,-162 1230,-162 1230,-522 1230,-579.2407 1172.5894,-620.0263 1127.4238,-643.2561"/>
<polygon fill="#000000" stroke="#000000" points="1118.2861,-647.8069 1125.2313,-639.3208 1122.7617,-645.5779 1127.2374,-643.3489 1127.2374,-643.3489 1127.2374,-643.3489 1122.7617,-645.5779 1129.2435,-647.377 1118.2861,-647.8069 1118.2861,-647.8069"/>
</g>
<!-- 1 -->
<g id="node2" class="node">
<title>1</title>
<polygon fill="none" stroke="#000000" points="976,-756 850,-756 850,-720 976,-720 976,-756"/>
<text text-anchor="middle" x="913" y="-734.3" font-family="Times,serif" font-size="14.00" fill="#000000">metadynamic.caster</text>
</g>
<!-- 3 -->
<g id="node4" class="node">
<title>3</title>
<polygon fill="none" stroke="#000000" points="421,-396 279,-396 279,-360 421,-360 421,-396"/>
<text text-anchor="middle" x="350" y="-374.3" font-family="Times,serif" font-size="14.00" fill="#000000">metadynamic.collector</text>
</g>
<!-- 2&#45;&gt;3 -->
<g id="edge8" class="edge">
<title>2&#45;&gt;3</title>
<path fill="none" stroke="#000000" d="M488.3167,-324.1686C463.2441,-333.9266 432.1633,-346.023 405.8191,-356.2758"/>
<polygon fill="#000000" stroke="#000000" points="396.3476,-359.962 404.0346,-352.1415 401.0072,-358.1485 405.6667,-356.3351 405.6667,-356.3351 405.6667,-356.3351 401.0072,-358.1485 407.2989,-360.5287 396.3476,-359.962 396.3476,-359.962"/>
</g>
<!-- 4 -->
<g id="node5" class="node">
<title>4</title>
<polygon fill="none" stroke="#000000" points="287.5,-756 168.5,-756 168.5,-720 287.5,-720 287.5,-756"/>
<text text-anchor="middle" x="228" y="-734.3" font-family="Times,serif" font-size="14.00" fill="#000000">metadynamic.ends</text>
</g>
<!-- 2&#45;&gt;4 -->
<g id="edge9" class="edge">
<title>2&#45;&gt;4</title>
<path fill="none" stroke="#000000" d="M462.8617,-310.5692C402.9762,-316.4349 316.6482,-329.7709 247,-360 197.4213,-381.5184 173.4088,-383.7787 149,-432 123.0852,-483.1965 40.9879,-426.2548 169,-684 174.5493,-695.1732 183.4704,-705.1549 192.7131,-713.4053"/>
<polygon fill="#000000" stroke="#000000" points="200.4857,-719.9165 189.9303,-716.9444 196.6529,-716.7057 192.82,-713.4948 192.82,-713.4948 192.82,-713.4948 196.6529,-716.7057 195.7098,-710.0453 200.4857,-719.9165 200.4857,-719.9165"/>
</g>
<!-- 6 -->
<g id="node7" class="node">
<title>6</title>
<polygon fill="none" stroke="#000000" points="977,-684 849,-684 849,-648 977,-648 977,-684"/>
<text text-anchor="middle" x="913" y="-662.3" font-family="Times,serif" font-size="14.00" fill="#000000">metadynamic.inputs</text>
</g>
<!-- 2&#45;&gt;6 -->
<g id="edge10" class="edge">
<title>2&#45;&gt;6</title>
<path fill="none" stroke="#000000" d="M607.2992,-318.424C676.495,-333.8395 779.6003,-366.5424 844,-432 900.0595,-488.9804 910.9637,-589.1225 912.8234,-637.8196"/>
<polygon fill="#000000" stroke="#000000" points="913.1058,-647.9448 908.3287,-638.0742 912.9664,-642.9468 912.8269,-637.9487 912.8269,-637.9487 912.8269,-637.9487 912.9664,-642.9468 917.3252,-637.8232 913.1058,-647.9448 913.1058,-647.9448"/>
</g>
<!-- 7 -->
<g id="node8" class="node">
<title>7</title>
<polygon fill="none" stroke="#000000" points="621,-684 499,-684 499,-648 621,-648 621,-684"/>
<text text-anchor="middle" x="560" y="-662.3" font-family="Times,serif" font-size="14.00" fill="#000000">metadynamic.inval</text>
</g>
<!-- 2&#45;&gt;7 -->
<g id="edge11" class="edge">
<title>2&#45;&gt;7</title>
<path fill="none" stroke="#000000" d="M543.6977,-324.1029C548.3096,-334.4076 553.6908,-347.6815 557,-360 577.8828,-437.7362 582.3934,-459.6886 577,-540 574.7353,-573.7236 569.0976,-612.1839 564.9323,-637.649"/>
<polygon fill="#000000" stroke="#000000" points="563.2514,-647.7152 560.4599,-637.1106 564.0749,-642.7835 564.8985,-637.8518 564.8985,-637.8518 564.8985,-637.8518 564.0749,-642.7835 569.337,-638.593 563.2514,-647.7152 563.2514,-647.7152"/>
</g>
<!-- 2&#45;&gt;9 -->
<g id="edge12" class="edge">
<title>2&#45;&gt;9</title>
<path fill="none" stroke="#000000" d="M538.023,-324.3755C542.3704,-354.8386 548.4773,-417.4534 535,-468 532.5048,-477.3581 527.9592,-486.7801 523.1039,-495.075"/>
<polygon fill="#000000" stroke="#000000" points="517.7963,-503.5772 519.2746,-492.7114 520.4441,-499.3358 523.0919,-495.0944 523.0919,-495.0944 523.0919,-495.0944 520.4441,-499.3358 526.9091,-497.4774 517.7963,-503.5772 517.7963,-503.5772"/>
</g>
<!-- 13 -->
<g id="node14" class="node">
<title>13</title>
<polygon fill="none" stroke="#000000" points="454.5,-468 329.5,-468 329.5,-432 454.5,-432 454.5,-468"/>
<text text-anchor="middle" x="392" y="-446.3" font-family="Times,serif" font-size="14.00" fill="#000000">metadynamic.proba</text>
</g>
<!-- 2&#45;&gt;13 -->
<g id="edge13" class="edge">
<title>2&#45;&gt;13</title>
<path fill="none" stroke="#000000" d="M516.889,-324.2377C491.6387,-349.6646 445.7494,-395.8747 417.1808,-424.6431"/>
<polygon fill="#000000" stroke="#000000" points="409.964,-431.9104 413.8173,-421.6438 413.4872,-428.3625 417.0104,-424.8147 417.0104,-424.8147 417.0104,-424.8147 413.4872,-428.3625 420.2035,-427.9856 409.964,-431.9104 409.964,-431.9104"/>
</g>
<!-- 15 -->
<g id="node16" class="node">
<title>15</title>
<polygon fill="none" stroke="#000000" points="311.5,-468 180.5,-468 180.5,-432 311.5,-432 311.5,-468"/>
<text text-anchor="middle" x="246" y="-446.3" font-family="Times,serif" font-size="14.00" fill="#000000">metadynamic.ruleset</text>
</g>
<!-- 2&#45;&gt;15 -->
<g id="edge14" class="edge">
<title>2&#45;&gt;15</title>
<path fill="none" stroke="#000000" d="M462.6863,-312.2195C394.0204,-319.5882 297.3396,-334.2426 270,-360 253.3383,-375.6974 247.7648,-401.5538 246.1114,-421.5343"/>
<polygon fill="#000000" stroke="#000000" points="245.5581,-431.6447 241.6113,-421.4137 245.8314,-426.6522 246.1046,-421.6597 246.1046,-421.6597 246.1046,-421.6597 245.8314,-426.6522 250.5979,-421.9056 245.5581,-431.6447 245.5581,-431.6447"/>
</g>
<!-- 3&#45;&gt;4 -->
<g id="edge15" class="edge">
<title>3&#45;&gt;4</title>
<path fill="none" stroke="#000000" d="M278.9996,-390.4843C234.9588,-399.8371 184.3074,-414.0858 171,-432 107.3558,-517.6771 175.8425,-653.2904 210.4633,-710.7915"/>
<polygon fill="#000000" stroke="#000000" points="215.9018,-719.6464 206.8337,-713.4804 213.285,-715.3859 210.6682,-711.1253 210.6682,-711.1253 210.6682,-711.1253 213.285,-715.3859 214.5028,-708.7702 215.9018,-719.6464 215.9018,-719.6464"/>
</g>
<!-- 3&#45;&gt;9 -->
<g id="edge16" class="edge">
<title>3&#45;&gt;9</title>
<path fill="none" stroke="#000000" d="M406.9004,-396.0577C426.5738,-404.5034 447.5384,-416.2524 463,-432 479.9264,-449.2395 490.6324,-474.7181 496.8423,-494.1702"/>
<polygon fill="#000000" stroke="#000000" points="499.7648,-503.9914 492.5995,-495.6903 498.3387,-499.1991 496.9126,-494.4068 496.9126,-494.4068 496.9126,-494.4068 498.3387,-499.1991 501.2257,-493.1233 499.7648,-503.9914 499.7648,-503.9914"/>
</g>
<!-- 3&#45;&gt;15 -->
<g id="edge17" class="edge">
<title>3&#45;&gt;15</title>
<path fill="none" stroke="#000000" d="M323.7564,-396.1686C310.7005,-405.2073 294.7465,-416.2524 280.6953,-425.9802"/>
<polygon fill="#000000" stroke="#000000" points="272.2352,-431.8372 277.8957,-422.4452 276.3462,-428.9911 280.4571,-426.145 280.4571,-426.145 280.4571,-426.145 276.3462,-428.9911 283.0186,-429.8449 272.2352,-431.8372 272.2352,-431.8372"/>
</g>
<!-- 5 -->
<g id="node6" class="node">
<title>5</title>
<polygon fill="none" stroke="#000000" points="834.5,-612 715.5,-612 715.5,-576 834.5,-576 834.5,-612"/>
<text text-anchor="middle" x="775" y="-590.3" font-family="Times,serif" font-size="14.00" fill="#000000">metadynamic.hdf5</text>
</g>
<!-- 5&#45;&gt;1 -->
<g id="edge18" class="edge">
<title>5&#45;&gt;1</title>
<path fill="none" stroke="#000000" d="M785.7572,-612.1576C797.6001,-631.2807 817.9122,-661.6588 840,-684 850.8062,-694.9301 863.97,-705.3675 876.1281,-714.102"/>
<polygon fill="#000000" stroke="#000000" points="884.3433,-719.862 873.572,-717.8056 880.2493,-716.9915 876.1554,-714.121 876.1554,-714.121 876.1554,-714.121 880.2493,-716.9915 878.7388,-710.4365 884.3433,-719.862 884.3433,-719.862"/>
</g>
<!-- 5&#45;&gt;4 -->
<g id="edge19" class="edge">
<title>5&#45;&gt;4</title>
<path fill="none" stroke="#000000" d="M758.7957,-612.0528C738.6295,-633.2113 702.0547,-667.4783 663,-684 598.8175,-711.1519 403.8187,-727.0927 298.0361,-733.9664"/>
<polygon fill="#000000" stroke="#000000" points="287.7734,-734.623 297.4656,-729.4936 292.7632,-734.3037 297.753,-733.9844 297.753,-733.9844 297.753,-733.9844 292.7632,-734.3037 298.0403,-738.4752 287.7734,-734.623 287.7734,-734.623"/>
</g>
<!-- 5&#45;&gt;6 -->
<g id="edge20" class="edge">
<title>5&#45;&gt;6</title>
<path fill="none" stroke="#000000" d="M809.8232,-612.1686C827.8011,-621.5484 849.9203,-633.0888 869.0616,-643.0756"/>
<polygon fill="#000000" stroke="#000000" points="878.1879,-647.8372 867.2405,-647.2011 873.755,-645.5243 869.3221,-643.2115 869.3221,-643.2115 869.3221,-643.2115 873.755,-645.5243 871.4036,-639.2218 878.1879,-647.8372 878.1879,-647.8372"/>
</g>
<!-- 5&#45;&gt;7 -->
<g id="edge21" class="edge">
<title>5&#45;&gt;7</title>
<path fill="none" stroke="#000000" d="M721.0239,-612.0757C691.5044,-621.9613 654.7556,-634.2679 623.8211,-644.6274"/>
<polygon fill="#000000" stroke="#000000" points="613.9983,-647.9169 622.0517,-640.4742 618.7395,-646.3291 623.4807,-644.7413 623.4807,-644.7413 623.4807,-644.7413 618.7395,-646.3291 624.9097,-649.0084 613.9983,-647.9169 613.9983,-647.9169"/>
</g>
<!-- 5&#45;&gt;10 -->
<g id="edge22" class="edge">
<title>5&#45;&gt;10</title>
<path fill="none" stroke="#000000" d="M715.2916,-604.1631C637.4641,-617.4104 501.6784,-640.5228 419.9793,-654.4291"/>
<polygon fill="#000000" stroke="#000000" points="410.0469,-656.1197 419.15,-650.0054 414.976,-655.2806 419.9051,-654.4416 419.9051,-654.4416 419.9051,-654.4416 414.976,-655.2806 420.6603,-658.8778 410.0469,-656.1197 410.0469,-656.1197"/>
</g>
<!-- 5&#45;&gt;17 -->
<g id="edge23" class="edge">
<title>5&#45;&gt;17</title>
<path fill="none" stroke="#000000" d="M834.7885,-608.3972C881.3615,-619.6121 946.367,-635.2656 996.8599,-647.4245"/>
<polygon fill="#000000" stroke="#000000" points="1006.7552,-649.8073 995.9796,-651.841 1001.8941,-648.6367 997.0331,-647.4661 997.0331,-647.4661 997.0331,-647.4661 1001.8941,-648.6367 998.0866,-643.0911 1006.7552,-649.8073 1006.7552,-649.8073"/>
</g>
<!-- 6&#45;&gt;1 -->
<g id="edge24" class="edge">
<title>6&#45;&gt;1</title>
<path fill="none" stroke="#000000" d="M913,-684.1686C913,-691.869 913,-701.0257 913,-709.5834"/>
<polygon fill="#000000" stroke="#000000" points="913,-719.5867 908.5001,-709.5867 913,-714.5867 913.0001,-709.5867 913.0001,-709.5867 913.0001,-709.5867 913,-714.5867 917.5001,-709.5868 913,-719.5867 913,-719.5867"/>
</g>
<!-- 6&#45;&gt;4 -->
<g id="edge25" class="edge">
<title>6&#45;&gt;4</title>
<path fill="none" stroke="#000000" d="M848.8647,-672.7412C720.1785,-686.2674 431.4216,-716.6185 298.0169,-730.6406"/>
<polygon fill="#000000" stroke="#000000" points="287.9124,-731.7026 297.3871,-726.1819 292.885,-731.1799 297.8576,-730.6572 297.8576,-730.6572 297.8576,-730.6572 292.885,-731.1799 298.328,-735.1326 287.9124,-731.7026 287.9124,-731.7026"/>
</g>
<!-- 8&#45;&gt;14 -->
<g id="edge26" class="edge">
<title>8&#45;&gt;14</title>
<path fill="none" stroke="#000000" d="M789.383,-108.2377C831.3072,-134.2596 908.3014,-182.0492 954.3546,-210.6339"/>
<polygon fill="#000000" stroke="#000000" points="962.8556,-215.9104 951.986,-214.4601 958.6074,-213.2735 954.3592,-210.6367 954.3592,-210.6367 954.3592,-210.6367 958.6074,-213.2735 956.7324,-206.8133 962.8556,-215.9104 962.8556,-215.9104"/>
</g>
<!-- 8&#45;&gt;16 -->
<g id="edge27" class="edge">
<title>8&#45;&gt;16</title>
<path fill="none" stroke="#000000" d="M747.6352,-108.1686C742.0491,-116.3768 735.337,-126.2394 729.1928,-135.2677"/>
<polygon fill="#000000" stroke="#000000" points="723.5313,-143.5867 725.4373,-132.7878 726.3444,-139.4532 729.1575,-135.3196 729.1575,-135.3196 729.1575,-135.3196 726.3444,-139.4532 732.8778,-137.8514 723.5313,-143.5867 723.5313,-143.5867"/>
</g>
<!-- 9&#45;&gt;5 -->
<g id="edge28" class="edge">
<title>9&#45;&gt;5</title>
<path fill="none" stroke="#000000" d="M568.567,-539.1543C609.7287,-550.0903 663.0526,-564.2575 705.1932,-575.4535"/>
<polygon fill="#000000" stroke="#000000" points="715.1006,-578.0858 704.2803,-579.8671 710.2682,-576.8019 705.4359,-575.5179 705.4359,-575.5179 705.4359,-575.5179 710.2682,-576.8019 706.5914,-571.1688 715.1006,-578.0858 715.1006,-578.0858"/>
</g>
<!-- 9&#45;&gt;7 -->
<g id="edge29" class="edge">
<title>9&#45;&gt;7</title>
<path fill="none" stroke="#000000" d="M511.0924,-540.2377C520.7282,-565.0154 538.0389,-609.5286 549.269,-638.4061"/>
<polygon fill="#000000" stroke="#000000" points="552.9651,-647.9104 545.1466,-640.2214 551.1529,-643.2504 549.3406,-638.5903 549.3406,-638.5903 549.3406,-638.5903 551.1529,-643.2504 553.5346,-636.9593 552.9651,-647.9104 552.9651,-647.9104"/>
</g>
<!-- 9&#45;&gt;10 -->
<g id="edge30" class="edge">
<title>9&#45;&gt;10</title>
<path fill="none" stroke="#000000" d="M472.3833,-540.2288C456.9766,-549.8635 438.6594,-562.4822 424,-576 403.2068,-595.1738 383.4248,-620.6125 369.8766,-639.5521"/>
<polygon fill="#000000" stroke="#000000" points="364.1091,-647.751 366.1821,-636.9828 366.9859,-643.6614 369.8627,-639.5719 369.8627,-639.5719 369.8627,-639.5719 366.9859,-643.6614 373.5433,-642.161 364.1091,-647.751 364.1091,-647.751"/>
</g>
<!-- 11 -->
<g id="node12" class="node">
<title>11</title>
<polygon fill="none" stroke="#000000" points="1125.5,-396 986.5,-396 986.5,-360 1125.5,-360 1125.5,-396"/>
<text text-anchor="middle" x="1056" y="-374.3" font-family="Times,serif" font-size="14.00" fill="#000000">metadynamic.network</text>
</g>
<!-- 11&#45;&gt;6 -->
<g id="edge31" class="edge">
<title>11&#45;&gt;6</title>
<path fill="none" stroke="#000000" d="M1055.0889,-396.1977C1052.1727,-438.0683 1040.1104,-542.9319 991,-612 982.475,-623.9894 970.4035,-634.1862 958.298,-642.3817"/>
<polygon fill="#000000" stroke="#000000" points="949.5275,-647.9926 955.5261,-638.8129 953.7394,-645.2981 957.9512,-642.6035 957.9512,-642.6035 957.9512,-642.6035 953.7394,-645.2981 960.3763,-646.3942 949.5275,-647.9926 949.5275,-647.9926"/>
</g>
<!-- 12 -->
<g id="node13" class="node">
<title>12</title>
<polygon fill="none" stroke="#000000" points="835,-468 701,-468 701,-432 835,-432 835,-468"/>
<text text-anchor="middle" x="768" y="-446.3" font-family="Times,serif" font-size="14.00" fill="#000000">metadynamic.outputs</text>
</g>
<!-- 12&#45;&gt;4 -->
<g id="edge32" class="edge">
<title>12&#45;&gt;4</title>
<path fill="none" stroke="#000000" d="M758.4316,-468.2479C730.6566,-520.9104 650.6824,-670.2792 630,-684 576.885,-719.2367 397.8618,-731.6415 297.5661,-735.885"/>
<polygon fill="#000000" stroke="#000000" points="287.5194,-736.2939 297.3281,-731.3909 292.5153,-736.0905 297.5112,-735.8871 297.5112,-735.8871 297.5112,-735.8871 292.5153,-736.0905 297.6942,-740.3834 287.5194,-736.2939 287.5194,-736.2939"/>
</g>
<!-- 12&#45;&gt;6 -->
<g id="edge33" class="edge">
<title>12&#45;&gt;6</title>
<path fill="none" stroke="#000000" d="M787.1494,-468.0694C810.8187,-491.2343 851.1303,-533.5052 877,-576 888.9613,-595.6482 898.4126,-619.9725 904.6242,-638.378"/>
<polygon fill="#000000" stroke="#000000" points="907.7372,-647.927 900.3593,-639.8142 906.1875,-643.1732 904.6377,-638.4195 904.6377,-638.4195 904.6377,-638.4195 906.1875,-643.1732 908.9161,-637.0247 907.7372,-647.927 907.7372,-647.927"/>
</g>
<!-- 12&#45;&gt;9 -->
<g id="edge34" class="edge">
<title>12&#45;&gt;9</title>
<path fill="none" stroke="#000000" d="M701.7224,-468.0757C664.2682,-478.2905 617.336,-491.0902 578.5962,-501.6556"/>
<polygon fill="#000000" stroke="#000000" points="568.9343,-504.2906 577.3979,-497.318 573.7581,-502.975 578.582,-501.6594 578.582,-501.6594 578.582,-501.6594 573.7581,-502.975 579.766,-506.0008 568.9343,-504.2906 568.9343,-504.2906"/>
</g>
<!-- 12&#45;&gt;10 -->
<g id="edge35" class="edge">
<title>12&#45;&gt;10</title>
<path fill="none" stroke="#000000" d="M733.2476,-468.0445C657.7713,-507.2341 478.9844,-600.0658 395.8785,-643.217"/>
<polygon fill="#000000" stroke="#000000" points="386.9461,-647.8549 393.7473,-639.253 391.3835,-645.5508 395.821,-643.2467 395.821,-643.2467 395.821,-643.2467 391.3835,-645.5508 397.8947,-647.2405 386.9461,-647.8549 386.9461,-647.8549"/>
</g>
<!-- 13&#45;&gt;4 -->
<g id="edge36" class="edge">
<title>13&#45;&gt;4</title>
<path fill="none" stroke="#000000" d="M381.7411,-468.0157C353.842,-517.0091 276.4703,-652.8814 243.3576,-711.0306"/>
<polygon fill="#000000" stroke="#000000" points="238.2551,-719.9911 239.2931,-709.0745 240.7293,-715.6462 243.2035,-711.3013 243.2035,-711.3013 243.2035,-711.3013 240.7293,-715.6462 247.1139,-713.5281 238.2551,-719.9911 238.2551,-719.9911"/>
</g>
<!-- 13&#45;&gt;7 -->
<g id="edge37" class="edge">
<title>13&#45;&gt;7</title>
<path fill="none" stroke="#000000" d="M397.3301,-468.3212C403.3851,-487.3089 414.4796,-517.327 430,-540 457.4704,-580.1302 499.2235,-617.7788 527.9595,-641.2859"/>
<polygon fill="#000000" stroke="#000000" points="536.0625,-647.8227 525.4539,-645.0464 532.1709,-644.6833 528.2793,-641.5439 528.2793,-641.5439 528.2793,-641.5439 532.1709,-644.6833 531.1048,-638.0415 536.0625,-647.8227 536.0625,-647.8227"/>
</g>
<!-- 13&#45;&gt;9 -->
<g id="edge38" class="edge">
<title>13&#45;&gt;9</title>
<path fill="none" stroke="#000000" d="M420.2623,-468.1686C434.4552,-477.2926 451.8282,-488.461 467.0636,-498.2551"/>
<polygon fill="#000000" stroke="#000000" points="475.7467,-503.8372 464.9015,-502.2149 471.5408,-501.1334 467.3349,-498.4296 467.3349,-498.4296 467.3349,-498.4296 471.5408,-501.1334 469.7683,-494.6442 475.7467,-503.8372 475.7467,-503.8372"/>
</g>
<!-- 14&#45;&gt;1 -->
<g id="edge39" class="edge">
<title>14&#45;&gt;1</title>
<path fill="none" stroke="#000000" d="M1054.7325,-250.4977C1113.386,-270.1626 1192,-309.3286 1192,-378 1192,-378 1192,-378 1192,-594 1192,-638.1412 1184.348,-656.2754 1150,-684 1125.05,-704.1388 1046.2135,-719.3961 986.2545,-728.4712"/>
<polygon fill="#000000" stroke="#000000" points="976.052,-729.9839 985.2838,-724.0658 980.9979,-729.2505 985.9439,-728.5172 985.9439,-728.5172 985.9439,-728.5172 980.9979,-729.2505 986.6039,-732.9685 976.052,-729.9839 976.052,-729.9839"/>
</g>
<!-- 14&#45;&gt;2 -->
<g id="edge40" class="edge">
<title>14&#45;&gt;2</title>
<path fill="none" stroke="#000000" d="M929.4143,-243.8603C848.4425,-256.6174 707.163,-278.8759 617.4964,-293.0027"/>
<polygon fill="#000000" stroke="#000000" points="607.3657,-294.5988 616.5435,-288.5973 612.3048,-293.8207 617.2439,-293.0425 617.2439,-293.0425 617.2439,-293.0425 612.3048,-293.8207 617.9442,-297.4876 607.3657,-294.5988 607.3657,-294.5988"/>
</g>
<!-- 14&#45;&gt;6 -->
<g id="edge41" class="edge">
<title>14&#45;&gt;6</title>
<path fill="none" stroke="#000000" d="M1038.8571,-252.1143C1086.7019,-274.0377 1154,-315.9105 1154,-378 1154,-378 1154,-378 1154,-522 1154,-564.4478 1042.4339,-615.7954 971.1185,-644.2818"/>
<polygon fill="#000000" stroke="#000000" points="961.7699,-647.9776 969.4152,-640.1162 966.4198,-646.1394 971.0696,-644.3011 971.0696,-644.3011 971.0696,-644.3011 966.4198,-646.1394 972.724,-648.4859 961.7699,-647.9776 961.7699,-647.9776"/>
</g>
<!-- 14&#45;&gt;7 -->
<g id="edge42" class="edge">
<title>14&#45;&gt;7</title>
<path fill="none" stroke="#000000" d="M983.687,-252.0915C963.9275,-293.7388 910.7693,-398.1652 844,-468 804.2479,-509.5771 665.1761,-599.6687 597.5259,-642.4853"/>
<polygon fill="#000000" stroke="#000000" points="588.8612,-647.9579 594.913,-638.8131 593.0886,-645.2878 597.316,-642.6178 597.316,-642.6178 597.316,-642.6178 593.0886,-645.2878 599.719,-646.4225 588.8612,-647.9579 588.8612,-647.9579"/>
</g>
<!-- 14&#45;&gt;11 -->
<g id="edge43" class="edge">
<title>14&#45;&gt;11</title>
<path fill="none" stroke="#000000" d="M1000.1056,-252.2377C1011.1179,-277.0154 1030.9016,-321.5286 1043.7361,-350.4061"/>
<polygon fill="#000000" stroke="#000000" points="1047.9602,-359.9104 1039.7866,-352.5999 1045.9294,-355.3413 1043.8987,-350.7723 1043.8987,-350.7723 1043.8987,-350.7723 1045.9294,-355.3413 1048.0109,-348.9446 1047.9602,-359.9104 1047.9602,-359.9104"/>
</g>
<!-- 15&#45;&gt;4 -->
<g id="edge44" class="edge">
<title>15&#45;&gt;4</title>
<path fill="none" stroke="#000000" d="M237.282,-468.0009C221.2936,-502.1274 187.8371,-579.0049 176,-648 173.2945,-663.7696 170.0168,-669.1608 176,-684 180.3225,-694.7204 187.9044,-704.5017 195.9639,-712.7052"/>
<polygon fill="#000000" stroke="#000000" points="203.4199,-719.7772 193.0676,-716.1604 199.7921,-716.3363 196.1644,-712.8954 196.1644,-712.8954 196.1644,-712.8954 199.7921,-716.3363 199.2612,-709.6304 203.4199,-719.7772 203.4199,-719.7772"/>
</g>
<!-- 15&#45;&gt;6 -->
<g id="edge45" class="edge">
<title>15&#45;&gt;6</title>
<path fill="none" stroke="#000000" d="M274.6231,-468.1688C309.7241,-489.4415 371.7514,-523.8209 430,-540 518.7652,-564.6555 762.0793,-531.966 843,-576 856.6445,-583.4248 879.8695,-615.5739 895.7992,-639.3405"/>
<polygon fill="#000000" stroke="#000000" points="901.512,-647.9698 892.2395,-642.1156 898.7519,-643.8006 895.9918,-639.6315 895.9918,-639.6315 895.9918,-639.6315 898.7519,-643.8006 899.744,-637.1474 901.512,-647.9698 901.512,-647.9698"/>
</g>
<!-- 15&#45;&gt;7 -->
<g id="edge46" class="edge">
<title>15&#45;&gt;7</title>
<path fill="none" stroke="#000000" d="M257.813,-468.0179C271.3137,-487.5825 294.9361,-518.8594 321,-540 377.2979,-585.6638 452.7212,-622.1126 503.6629,-643.8312"/>
<polygon fill="#000000" stroke="#000000" points="513.1956,-647.8455 502.233,-648.1118 508.5875,-645.905 503.9794,-643.9645 503.9794,-643.9645 503.9794,-643.9645 508.5875,-645.905 505.7259,-639.8172 513.1956,-647.8455 513.1956,-647.8455"/>
</g>
<!-- 15&#45;&gt;9 -->
<g id="edge47" class="edge">
<title>15&#45;&gt;9</title>
<path fill="none" stroke="#000000" d="M310.7713,-468.0757C346.8081,-478.1325 391.8232,-490.6948 429.3367,-501.1637"/>
<polygon fill="#000000" stroke="#000000" points="439.2021,-503.9169 428.3605,-505.5632 434.3861,-502.5728 429.5701,-501.2288 429.5701,-501.2288 429.5701,-501.2288 434.3861,-502.5728 430.7797,-496.8944 439.2021,-503.9169 439.2021,-503.9169"/>
</g>
<!-- 15&#45;&gt;10 -->
<g id="edge48" class="edge">
<title>15&#45;&gt;10</title>
<path fill="none" stroke="#000000" d="M252.7929,-468.1864C259.8106,-486.5501 271.3517,-515.6084 283,-540 299.6778,-574.9233 321.4892,-613.8042 336.0829,-639.0131"/>
<polygon fill="#000000" stroke="#000000" points="341.2969,-647.9686 332.3764,-641.5908 338.7811,-643.6476 336.2653,-639.3266 336.2653,-639.3266 336.2653,-639.3266 338.7811,-643.6476 340.1542,-637.0624 341.2969,-647.9686 341.2969,-647.9686"/>
</g>
<!-- 16&#45;&gt;2 -->
<g id="edge49" class="edge">
<title>16&#45;&gt;2</title>
<path fill="none" stroke="#000000" d="M675.815,-180.2116C658.5768,-189.842 637.9386,-202.4622 621,-216 596.9218,-235.244 572.9791,-260.9806 556.4947,-280.0021"/>
<polygon fill="#000000" stroke="#000000" points="549.9079,-287.7046 552.9871,-277.1798 553.1575,-283.9045 556.4072,-280.1045 556.4072,-280.1045 556.4072,-280.1045 553.1575,-283.9045 559.8272,-283.0292 549.9079,-287.7046 549.9079,-287.7046"/>
</g>
<!-- 16&#45;&gt;4 -->
<g id="edge50" class="edge">
<title>16&#45;&gt;4</title>
<path fill="none" stroke="#000000" d="M644.4304,-167.8771C467.6802,-185.3052 0,-244.0736 0,-378 0,-378 0,-378 0,-594 0,-669.8142 91.232,-707.3336 158.2754,-724.6698"/>
<polygon fill="#000000" stroke="#000000" points="168.3935,-727.1826 157.6037,-729.1396 163.5409,-725.9774 158.6883,-724.7723 158.6883,-724.7723 158.6883,-724.7723 163.5409,-725.9774 159.7729,-720.405 168.3935,-727.1826 168.3935,-727.1826"/>
</g>
<!-- 16&#45;&gt;5 -->
<g id="edge51" class="edge">
<title>16&#45;&gt;5</title>
<path fill="none" stroke="#000000" d="M753.3405,-180.1005C798.316,-202.511 863,-245.2943 863,-306 863,-306 863,-306 863,-450 863,-496.9328 828.5444,-541.5127 802.7531,-568.3082"/>
<polygon fill="#000000" stroke="#000000" points="795.4102,-575.7087 799.2593,-565.4405 798.9319,-572.1594 802.4537,-568.6101 802.4537,-568.6101 802.4537,-568.6101 798.9319,-572.1594 805.648,-571.7797 795.4102,-575.7087 795.4102,-575.7087"/>
</g>
<!-- 16&#45;&gt;6 -->
<g id="edge52" class="edge">
<title>16&#45;&gt;6</title>
<path fill="none" stroke="#000000" d="M777.5444,-178.0349C800.7894,-186.284 825.6341,-198.4263 844,-216 869.4334,-240.3363 866.7399,-254.3274 877,-288 914.802,-412.0619 913.5213,-446.7307 924,-576 925.2927,-591.9477 925.6049,-596.0807 924,-612 923.1498,-620.4335 921.5706,-629.4971 919.8689,-637.7446"/>
<polygon fill="#000000" stroke="#000000" points="917.6934,-647.6463 915.4442,-636.9135 918.7664,-642.7627 919.8394,-637.8792 919.8394,-637.8792 919.8394,-637.8792 918.7664,-642.7627 924.2345,-638.8449 917.6934,-647.6463 917.6934,-647.6463"/>
</g>
<!-- 16&#45;&gt;7 -->
<g id="edge53" class="edge">
<title>16&#45;&gt;7</title>
<path fill="none" stroke="#000000" d="M707.2123,-180.4055C694.1648,-242.4621 648.4314,-449.2339 586,-612 582.5887,-620.8937 578.2922,-630.3322 574.18,-638.7884"/>
<polygon fill="#000000" stroke="#000000" points="569.6724,-647.837 570.1035,-636.8796 571.9019,-643.3616 574.1314,-638.8861 574.1314,-638.8861 574.1314,-638.8861 571.9019,-643.3616 578.1593,-640.8927 569.6724,-647.837 569.6724,-647.837"/>
</g>
<!-- 16&#45;&gt;9 -->
<g id="edge54" class="edge">
<title>16&#45;&gt;9</title>
<path fill="none" stroke="#000000" d="M693.7544,-180.3814C671.3312,-206.281 635,-255.9652 635,-306 635,-306 635,-306 635,-378 635,-431.3473 585.1968,-473.6538 547.0063,-498.2533"/>
<polygon fill="#000000" stroke="#000000" points="538.0767,-503.8248 544.1787,-494.7134 542.3188,-501.178 546.5608,-498.5312 546.5608,-498.5312 546.5608,-498.5312 542.3188,-501.178 548.9429,-502.349 538.0767,-503.8248 538.0767,-503.8248"/>
</g>
<!-- 16&#45;&gt;10 -->
<g id="edge55" class="edge">
<title>16&#45;&gt;10</title>
<path fill="none" stroke="#000000" d="M644.4866,-169.1062C518.6453,-186.769 251.1396,-245.6859 171,-432 133.3017,-519.6437 245.6188,-603.3046 310.0883,-642.6143"/>
<polygon fill="#000000" stroke="#000000" points="318.847,-647.8625 307.9561,-646.5827 314.5581,-645.2926 310.2691,-642.7226 310.2691,-642.7226 310.2691,-642.7226 314.5581,-645.2926 312.582,-638.8625 318.847,-647.8625 318.847,-647.8625"/>
</g>
<!-- 16&#45;&gt;12 -->
<g id="edge56" class="edge">
<title>16&#45;&gt;12</title>
<path fill="none" stroke="#000000" d="M716.125,-180.4151C718.9316,-190.8174 722.3643,-204.085 725,-216 741.3189,-289.7713 756.2707,-377.5872 763.4775,-421.7138"/>
<polygon fill="#000000" stroke="#000000" points="765.0987,-431.7054 759.0551,-422.5552 764.2979,-426.77 763.4971,-421.8345 763.4971,-421.8345 763.4971,-421.8345 764.2979,-426.77 767.939,-421.1138 765.0987,-431.7054 765.0987,-431.7054"/>
</g>
<!-- 16&#45;&gt;14 -->
<g id="edge57" class="edge">
<title>16&#45;&gt;14</title>
<path fill="none" stroke="#000000" d="M777.5931,-179.063C820.2934,-190.004 875.7257,-204.2073 919.5293,-215.431"/>
<polygon fill="#000000" stroke="#000000" points="929.2578,-217.9237 918.4538,-219.8007 924.4143,-216.6826 919.5708,-215.4415 919.5708,-215.4415 919.5708,-215.4415 924.4143,-216.6826 920.6877,-211.0824 929.2578,-217.9237 929.2578,-217.9237"/>
</g>
</g>
</svg>
