<?xml version="1.0" encoding="UTF-8" standalone="no"?>
<!DOCTYPE svg PUBLIC "-//W3C//DTD SVG 1.1//EN"
 "http://www.w3.org/Graphics/SVG/1.1/DTD/svg11.dtd">
<!-- Generated by graphviz version 2.43.0 (0)
 -->
<!-- Title: classes Pages: 1 -->
<svg width="1685pt" height="744pt"
 viewBox="0.00 0.00 1685.00 744.00" xmlns="http://www.w3.org/2000/svg" xmlns:xlink="http://www.w3.org/1999/xlink">
<g id="graph0" class="graph" transform="scale(1 1) rotate(0) translate(4 740)">
<title>classes</title>
<polygon fill="white" stroke="transparent" points="-4,4 -4,-740 1681,-740 1681,4 -4,4"/>
<!-- 0 -->
<g id="node1" class="node">
<title>0</title>
<polygon fill="none" stroke="black" points="829,-458.5 829,-494.5 890,-494.5 890,-458.5 829,-458.5"/>
<text text-anchor="middle" x="859.5" y="-472.8" font-family="Times,serif" font-size="14.00" fill="darkred">Aborted</text>
</g>
<!-- 20 -->
<g id="node21" class="node">
<title>20</title>
<polygon fill="none" stroke="black" points="613,-531.5 613,-567.5 676,-567.5 676,-531.5 613,-531.5"/>
<text text-anchor="middle" x="644.5" y="-545.8" font-family="Times,serif" font-size="14.00" fill="darkred">Finished</text>
</g>
<!-- 0&#45;&gt;20 -->
<g id="edge1" class="edge">
<title>0&#45;&gt;20</title>
<path fill="none" stroke="black" d="M828.7,-487.67C791.18,-500.06 727.66,-521.04 685.9,-534.83"/>
<polygon fill="none" stroke="black" points="684.7,-531.54 676.3,-538 686.89,-538.19 684.7,-531.54"/>
</g>
<!-- 1 -->
<g id="node2" class="node">
<title>1</title>
<polygon fill="none" stroke="black" points="332,-458.5 332,-494.5 409,-494.5 409,-458.5 332,-458.5"/>
<text text-anchor="middle" x="370.5" y="-472.8" font-family="Times,serif" font-size="14.00" fill="darkred">BadEnding</text>
</g>
<!-- 1&#45;&gt;20 -->
<g id="edge2" class="edge">
<title>1&#45;&gt;20</title>
<path fill="none" stroke="black" d="M409.18,-487.52C460.35,-500.78 550.19,-524.06 602.82,-537.7"/>
<polygon fill="none" stroke="black" points="602.27,-541.17 612.83,-540.29 604.03,-534.4 602.27,-541.17"/>
</g>
<!-- 2 -->
<g id="node3" class="node">
<title>2</title>
<polygon fill="none" stroke="black" points="0,-312.5 0,-348.5 59,-348.5 59,-312.5 0,-312.5"/>
<text text-anchor="middle" x="29.5" y="-326.8" font-family="Times,serif" font-size="14.00" fill="darkred">BadFile</text>
</g>
<!-- 24 -->
<g id="node25" class="node">
<title>24</title>
<polygon fill="none" stroke="black" points="185.5,-385.5 185.5,-421.5 259.5,-421.5 259.5,-385.5 185.5,-385.5"/>
<text text-anchor="middle" x="222.5" y="-399.8" font-family="Times,serif" font-size="14.00" fill="darkred">InputError</text>
</g>
<!-- 2&#45;&gt;24 -->
<g id="edge3" class="edge">
<title>2&#45;&gt;24</title>
<path fill="none" stroke="black" d="M59.23,-345.58C62.01,-346.78 64.8,-347.94 67.5,-349 112.19,-366.6 126.73,-367.84 175.81,-384.85"/>
<polygon fill="none" stroke="black" points="174.8,-388.21 185.4,-388.22 177.12,-381.6 174.8,-388.21"/>
</g>
<!-- 3 -->
<g id="node4" class="node">
<title>3</title>
<polygon fill="none" stroke="black" points="77,-312.5 77,-348.5 148,-348.5 148,-312.5 77,-312.5"/>
<text text-anchor="middle" x="112.5" y="-326.8" font-family="Times,serif" font-size="14.00" fill="darkred">BadJSON</text>
</g>
<!-- 3&#45;&gt;24 -->
<g id="edge4" class="edge">
<title>3&#45;&gt;24</title>
<path fill="none" stroke="black" d="M138.85,-348.51C153.43,-357.92 171.75,-369.74 187.52,-379.93"/>
<polygon fill="none" stroke="black" points="185.69,-382.9 195.99,-385.39 189.48,-377.02 185.69,-382.9"/>
</g>
<!-- 4 -->
<g id="node5" class="node">
<title>4</title>
<polygon fill="none" stroke="black" points="274.5,-675.5 274.5,-711.5 328.5,-711.5 328.5,-675.5 274.5,-675.5"/>
<text text-anchor="middle" x="301.5" y="-689.8" font-family="Times,serif" font-size="14.00">Caster</text>
</g>
<!-- 5 -->
<g id="node6" class="node">
<title>5</title>
<polygon fill="none" stroke="black" points="264.5,-602.5 264.5,-638.5 338.5,-638.5 338.5,-602.5 264.5,-602.5"/>
<text text-anchor="middle" x="301.5" y="-616.8" font-family="Times,serif" font-size="14.00">Castreader</text>
</g>
<!-- 5&#45;&gt;4 -->
<g id="edge5" class="edge">
<title>5&#45;&gt;4</title>
<path fill="none" stroke="black" d="M301.5,-638.69C301.5,-646.71 301.5,-656.45 301.5,-665.43"/>
<polygon fill="none" stroke="black" points="298,-665.47 301.5,-675.47 305,-665.47 298,-665.47"/>
</g>
<!-- 6 -->
<g id="node7" class="node">
<title>6</title>
<polygon fill="none" stroke="black" points="514,-146.5 514,-182.5 583,-182.5 583,-146.5 514,-146.5"/>
<text text-anchor="middle" x="548.5" y="-160.8" font-family="Times,serif" font-size="14.00">Chemical</text>
</g>
<!-- 8 -->
<g id="node9" class="node">
<title>8</title>
<polygon fill="none" stroke="black" points="509.5,-219.5 509.5,-255.5 587.5,-255.5 587.5,-219.5 509.5,-219.5"/>
<text text-anchor="middle" x="548.5" y="-233.8" font-family="Times,serif" font-size="14.00">Collectable</text>
</g>
<!-- 6&#45;&gt;8 -->
<g id="edge6" class="edge">
<title>6&#45;&gt;8</title>
<path fill="none" stroke="black" d="M548.5,-182.69C548.5,-190.71 548.5,-200.45 548.5,-209.43"/>
<polygon fill="none" stroke="black" points="545,-209.47 548.5,-219.47 552,-209.47 545,-209.47"/>
</g>
<!-- 7 -->
<g id="node8" class="node">
<title>7</title>
<polygon fill="none" stroke="black" points="720.5,-146.5 720.5,-182.5 776.5,-182.5 776.5,-146.5 720.5,-146.5"/>
<text text-anchor="middle" x="748.5" y="-160.8" font-family="Times,serif" font-size="14.00">Collect</text>
</g>
<!-- 9 -->
<g id="node10" class="node">
<title>9</title>
<polygon fill="none" stroke="black" points="887.5,-73.5 887.5,-109.5 1015.5,-109.5 1015.5,-73.5 887.5,-73.5"/>
<text text-anchor="middle" x="951.5" y="-87.8" font-family="Times,serif" font-size="14.00">CollectofCompound</text>
</g>
<!-- 9&#45;&gt;7 -->
<g id="edge7" class="edge">
<title>9&#45;&gt;7</title>
<path fill="none" stroke="black" d="M892.07,-109.6C862.44,-118.61 825.99,-130.39 786.02,-146.02"/>
<polygon fill="none" stroke="black" points="784.62,-142.8 776.62,-149.74 787.2,-149.31 784.62,-142.8"/>
</g>
<!-- 13 -->
<g id="node14" class="node">
<title>13</title>
<polygon fill="none" stroke="black" points="1074.5,-146.5 1074.5,-182.5 1128.5,-182.5 1128.5,-146.5 1074.5,-146.5"/>
<text text-anchor="middle" x="1101.5" y="-160.8" font-family="Times,serif" font-size="14.00">Crn</text>
</g>
<!-- 9&#45;&gt;13 -->
<g id="edge35" class="edge">
<title>9&#45;&gt;13</title>
<path fill="none" stroke="black" d="M988.27,-109.6C1008.19,-118.9 1033.47,-130.75 1063.23,-144.94"/>
<polygon fill="black" stroke="black" points="1063.56,-145.1 1070.7,-144.08 1074.39,-150.27 1067.25,-151.3 1063.56,-145.1"/>
</g>
<!-- 10 -->
<g id="node11" class="node">
<title>10</title>
<polygon fill="none" stroke="black" points="738,-73.5 738,-109.5 853,-109.5 853,-73.5 738,-73.5"/>
<text text-anchor="middle" x="795.5" y="-87.8" font-family="Times,serif" font-size="14.00">CollectofReaction</text>
</g>
<!-- 10&#45;&gt;7 -->
<g id="edge8" class="edge">
<title>10&#45;&gt;7</title>
<path fill="none" stroke="black" d="M784.12,-109.69C778.52,-118.15 771.66,-128.52 765.45,-137.89"/>
<polygon fill="none" stroke="black" points="762.37,-136.2 759.77,-146.47 768.21,-140.06 762.37,-136.2"/>
</g>
<!-- 10&#45;&gt;13 -->
<g id="edge36" class="edge">
<title>10&#45;&gt;13</title>
<path fill="none" stroke="black" d="M853.07,-104.78C861.59,-106.55 870.27,-108.34 878.5,-110 957.74,-125.98 982.94,-119.89 1062.67,-145.53"/>
<polygon fill="black" stroke="black" points="1062.9,-145.6 1069.85,-143.68 1074.29,-149.36 1067.34,-151.28 1062.9,-145.6"/>
</g>
<!-- 11 -->
<g id="node12" class="node">
<title>11</title>
<polygon fill="none" stroke="black" points="442,-73.5 442,-109.5 519,-109.5 519,-73.5 442,-73.5"/>
<text text-anchor="middle" x="480.5" y="-87.8" font-family="Times,serif" font-size="14.00">Compound</text>
</g>
<!-- 11&#45;&gt;6 -->
<g id="edge9" class="edge">
<title>11&#45;&gt;6</title>
<path fill="none" stroke="black" d="M496.96,-109.69C505.4,-118.5 515.82,-129.37 525.08,-139.04"/>
<polygon fill="none" stroke="black" points="522.75,-141.67 532.19,-146.47 527.8,-136.83 522.75,-141.67"/>
</g>
<!-- 12 -->
<g id="node13" class="node">
<title>12</title>
<polygon fill="none" stroke="black" points="390.5,-602.5 390.5,-638.5 444.5,-638.5 444.5,-602.5 390.5,-602.5"/>
<text text-anchor="middle" x="417.5" y="-616.8" font-family="Times,serif" font-size="14.00">Cont</text>
</g>
<!-- 37 -->
<g id="node38" class="node">
<title>37</title>
<polygon fill="none" stroke="black" points="385,-675.5 385,-711.5 450,-711.5 450,-675.5 385,-675.5"/>
<text text-anchor="middle" x="417.5" y="-689.8" font-family="Times,serif" font-size="14.00">MpiGate</text>
</g>
<!-- 12&#45;&gt;37 -->
<g id="edge37" class="edge">
<title>12&#45;&gt;37</title>
<path fill="none" stroke="black" d="M417.5,-638.69C417.5,-646.1 417.5,-654.98 417.5,-663.37"/>
<polygon fill="black" stroke="black" points="417.5,-663.47 421.5,-669.47 417.5,-675.47 413.5,-669.47 417.5,-663.47"/>
</g>
<!-- 61 -->
<g id="node62" class="node">
<title>61</title>
<polygon fill="none" stroke="black" points="1035,-219.5 1035,-255.5 1092,-255.5 1092,-219.5 1035,-219.5"/>
<text text-anchor="middle" x="1063.5" y="-233.8" font-family="Times,serif" font-size="14.00">System</text>
</g>
<!-- 13&#45;&gt;61 -->
<g id="edge38" class="edge">
<title>13&#45;&gt;61</title>
<path fill="none" stroke="black" d="M1092.3,-182.69C1088.1,-190.54 1083.02,-200.03 1078.3,-208.84"/>
<polygon fill="black" stroke="black" points="1078.28,-208.89 1078.97,-216.07 1072.61,-219.47 1071.92,-212.29 1078.28,-208.89"/>
</g>
<!-- 14 -->
<g id="node15" class="node">
<title>14</title>
<polygon fill="none" stroke="black" points="297.5,-123.5 297.5,-159.5 363.5,-159.5 363.5,-123.5 297.5,-123.5"/>
<text text-anchor="middle" x="330.5" y="-137.8" font-family="Times,serif" font-size="14.00">Data2dot</text>
</g>
<!-- 15 -->
<g id="node16" class="node">
<title>15</title>
<polygon fill="none" stroke="black" points="99.5,-385.5 99.5,-421.5 167.5,-421.5 167.5,-385.5 99.5,-385.5"/>
<text text-anchor="middle" x="133.5" y="-399.8" font-family="Times,serif" font-size="14.00" fill="darkred">DecrZero</text>
</g>
<!-- 15&#45;&gt;1 -->
<g id="edge10" class="edge">
<title>15&#45;&gt;1</title>
<path fill="none" stroke="black" d="M167.63,-418.81C170.61,-419.94 173.6,-421.01 176.5,-422 225.34,-438.61 282.37,-453.85 321.91,-463.79"/>
<polygon fill="none" stroke="black" points="321.26,-467.23 331.81,-466.26 322.96,-460.44 321.26,-467.23"/>
</g>
<!-- 16 -->
<g id="node17" class="node">
<title>16</title>
<polygon fill="none" stroke="black" points="951.5,-0.5 951.5,-36.5 1025.5,-36.5 1025.5,-0.5 951.5,-0.5"/>
<text text-anchor="middle" x="988.5" y="-14.8" font-family="Times,serif" font-size="14.00">Descriptor</text>
</g>
<!-- 36 -->
<g id="node37" class="node">
<title>36</title>
<polygon fill="none" stroke="black" points="1106.5,-73.5 1106.5,-109.5 1160.5,-109.5 1160.5,-73.5 1106.5,-73.5"/>
<text text-anchor="middle" x="1133.5" y="-87.8" font-family="Times,serif" font-size="14.00">Model</text>
</g>
<!-- 16&#45;&gt;36 -->
<g id="edge39" class="edge">
<title>16&#45;&gt;36</title>
<path fill="none" stroke="black" d="M1025.55,-36.03C1045.21,-44.99 1069.97,-56.56 1095.3,-69.37"/>
<polygon fill="black" stroke="black" points="1095.49,-69.47 1102.65,-68.64 1106.18,-74.93 1099.01,-75.76 1095.49,-69.47"/>
</g>
<!-- 17 -->
<g id="node18" class="node">
<title>17</title>
<polygon fill="none" stroke="black" points="1341.5,-0.5 1341.5,-36.5 1413.5,-36.5 1413.5,-0.5 1341.5,-0.5"/>
<text text-anchor="middle" x="1377.5" y="-14.8" font-family="Times,serif" font-size="14.00">DotParam</text>
</g>
<!-- 48 -->
<g id="node49" class="node">
<title>48</title>
<polygon fill="none" stroke="black" points="1383,-73.5 1383,-109.5 1464,-109.5 1464,-73.5 1383,-73.5"/>
<text text-anchor="middle" x="1423.5" y="-87.8" font-family="Times,serif" font-size="14.00">Readerclass</text>
</g>
<!-- 17&#45;&gt;48 -->
<g id="edge11" class="edge">
<title>17&#45;&gt;48</title>
<path fill="none" stroke="black" d="M1388.64,-36.69C1394.12,-45.15 1400.83,-55.52 1406.91,-64.89"/>
<polygon fill="none" stroke="black" points="1404.09,-66.98 1412.47,-73.47 1409.97,-63.18 1404.09,-66.98"/>
</g>
<!-- 18 -->
<g id="node19" class="node">
<title>18</title>
<polygon fill="none" stroke="black" points="166,-312.5 166,-348.5 279,-348.5 279,-312.5 166,-312.5"/>
<text text-anchor="middle" x="222.5" y="-326.8" font-family="Times,serif" font-size="14.00" fill="darkred">FileCreationError</text>
</g>
<!-- 18&#45;&gt;24 -->
<g id="edge12" class="edge">
<title>18&#45;&gt;24</title>
<path fill="none" stroke="black" d="M222.5,-348.69C222.5,-356.71 222.5,-366.45 222.5,-375.43"/>
<polygon fill="none" stroke="black" points="219,-375.47 222.5,-385.47 226,-375.47 219,-375.47"/>
</g>
<!-- 19 -->
<g id="node20" class="node">
<title>19</title>
<polygon fill="none" stroke="black" points="297.5,-312.5 297.5,-348.5 389.5,-348.5 389.5,-312.5 297.5,-312.5"/>
<text text-anchor="middle" x="343.5" y="-326.8" font-family="Times,serif" font-size="14.00" fill="darkred">FileNotFound</text>
</g>
<!-- 19&#45;&gt;24 -->
<g id="edge13" class="edge">
<title>19&#45;&gt;24</title>
<path fill="none" stroke="black" d="M314.52,-348.51C298.32,-358.01 277.95,-369.96 260.49,-380.21"/>
<polygon fill="none" stroke="black" points="258.52,-377.31 251.67,-385.39 262.06,-383.34 258.52,-377.31"/>
</g>
<!-- 21 -->
<g id="node22" class="node">
<title>21</title>
<polygon fill="none" stroke="black" points="289,-50.5 289,-86.5 372,-86.5 372,-50.5 289,-50.5"/>
<text text-anchor="middle" x="330.5" y="-64.8" font-family="Times,serif" font-size="14.00">Graphwriter</text>
</g>
<!-- 21&#45;&gt;14 -->
<g id="edge40" class="edge">
<title>21&#45;&gt;14</title>
<path fill="none" stroke="black" d="M330.5,-86.69C330.5,-94.1 330.5,-102.98 330.5,-111.37"/>
<polygon fill="black" stroke="black" points="330.5,-111.47 334.5,-117.47 330.5,-123.47 326.5,-117.47 330.5,-111.47"/>
</g>
<!-- 22 -->
<g id="node23" class="node">
<title>22</title>
<polygon fill="none" stroke="black" points="598.5,-458.5 598.5,-494.5 690.5,-494.5 690.5,-458.5 598.5,-458.5"/>
<text text-anchor="middle" x="644.5" y="-472.8" font-family="Times,serif" font-size="14.00" fill="darkred">HappyEnding</text>
</g>
<!-- 22&#45;&gt;20 -->
<g id="edge14" class="edge">
<title>22&#45;&gt;20</title>
<path fill="none" stroke="black" d="M644.5,-494.69C644.5,-502.71 644.5,-512.45 644.5,-521.43"/>
<polygon fill="none" stroke="black" points="641,-521.47 644.5,-531.47 648,-521.47 641,-521.47"/>
</g>
<!-- 23 -->
<g id="node24" class="node">
<title>23</title>
<polygon fill="none" stroke="black" points="738.5,-385.5 738.5,-421.5 802.5,-421.5 802.5,-385.5 738.5,-385.5"/>
<text text-anchor="middle" x="770.5" y="-399.8" font-family="Times,serif" font-size="14.00" fill="darkred">InitError</text>
</g>
<!-- 23&#45;&gt;0 -->
<g id="edge15" class="edge">
<title>23&#45;&gt;0</title>
<path fill="none" stroke="black" d="M792.04,-421.69C803.52,-430.84 817.81,-442.24 830.27,-452.18"/>
<polygon fill="none" stroke="black" points="828.15,-454.97 838.15,-458.47 832.52,-449.5 828.15,-454.97"/>
</g>
<!-- 24&#45;&gt;1 -->
<g id="edge16" class="edge">
<title>24&#45;&gt;1</title>
<path fill="none" stroke="black" d="M257.95,-421.51C278.3,-431.27 304.05,-443.62 325.79,-454.05"/>
<polygon fill="none" stroke="black" points="324.3,-457.22 334.83,-458.39 327.32,-450.91 324.3,-457.22"/>
</g>
<!-- 25 -->
<g id="node26" class="node">
<title>25</title>
<polygon fill="none" stroke="black" points="278,-385.5 278,-421.5 365,-421.5 365,-385.5 278,-385.5"/>
<text text-anchor="middle" x="321.5" y="-399.8" font-family="Times,serif" font-size="14.00" fill="darkred">InternalError</text>
</g>
<!-- 25&#45;&gt;1 -->
<g id="edge17" class="edge">
<title>25&#45;&gt;1</title>
<path fill="none" stroke="black" d="M333.36,-421.69C339.26,-430.23 346.5,-440.73 353.02,-450.18"/>
<polygon fill="none" stroke="black" points="350.19,-452.23 358.75,-458.47 355.95,-448.25 350.19,-452.23"/>
</g>
<!-- 26 -->
<g id="node27" class="node">
<title>26</title>
<polygon fill="none" stroke="black" points="821,-385.5 821,-421.5 898,-421.5 898,-385.5 821,-385.5"/>
<text text-anchor="middle" x="859.5" y="-399.8" font-family="Times,serif" font-size="14.00" fill="darkred">Interrupted</text>
</g>
<!-- 26&#45;&gt;0 -->
<g id="edge18" class="edge">
<title>26&#45;&gt;0</title>
<path fill="none" stroke="black" d="M859.5,-421.69C859.5,-429.71 859.5,-439.45 859.5,-448.43"/>
<polygon fill="none" stroke="black" points="856,-448.47 859.5,-458.47 863,-448.47 856,-448.47"/>
</g>
<!-- 27 -->
<g id="node28" class="node">
<title>27</title>
<polygon fill="none" stroke="black" points="524,-73.5 524,-109.5 579,-109.5 579,-73.5 524,-73.5"/>
<text text-anchor="middle" x="551.5" y="-87.8" font-family="Times,serif" font-size="14.00">Invalid</text>
</g>
<!-- 28 -->
<g id="node29" class="node">
<title>28</title>
<polygon fill="none" stroke="black" points="601,-603.5 601,-639.5 684,-639.5 684,-603.5 601,-603.5"/>
<text text-anchor="middle" x="642.5" y="-617.8" font-family="Times,serif" font-size="14.00" fill="darkred">InvalidError</text>
</g>
<!-- 29 -->
<g id="node30" class="node">
<title>29</title>
<polygon fill="none" stroke="black" points="409,-0.5 409,-36.5 492,-36.5 492,-0.5 409,-0.5"/>
<text text-anchor="middle" x="450.5" y="-14.8" font-family="Times,serif" font-size="14.00">InvalidFloat</text>
</g>
<!-- 29&#45;&gt;27 -->
<g id="edge19" class="edge">
<title>29&#45;&gt;27</title>
<path fill="none" stroke="black" d="M474.69,-36.51C487.84,-45.75 504.28,-57.31 518.58,-67.36"/>
<polygon fill="none" stroke="black" points="516.96,-70.5 527.16,-73.39 520.99,-64.77 516.96,-70.5"/>
</g>
<!-- 30 -->
<g id="node31" class="node">
<title>30</title>
<polygon fill="none" stroke="black" points="599.5,-0.5 599.5,-36.5 669.5,-36.5 669.5,-0.5 599.5,-0.5"/>
<text text-anchor="middle" x="634.5" y="-14.8" font-family="Times,serif" font-size="14.00">InvalidInt</text>
</g>
<!-- 30&#45;&gt;27 -->
<g id="edge20" class="edge">
<title>30&#45;&gt;27</title>
<path fill="none" stroke="black" d="M614.41,-36.69C603.81,-45.76 590.63,-57.02 579.09,-66.9"/>
<polygon fill="none" stroke="black" points="576.73,-64.31 571.41,-73.47 581.28,-69.63 576.73,-64.31"/>
</g>
<!-- 47 -->
<g id="node48" class="node">
<title>47</title>
<polygon fill="none" stroke="black" points="596,-73.5 596,-109.5 661,-109.5 661,-73.5 596,-73.5"/>
<text text-anchor="middle" x="628.5" y="-87.8" font-family="Times,serif" font-size="14.00">Reaction</text>
</g>
<!-- 30&#45;&gt;47 -->
<g id="edge41" class="edge">
<title>30&#45;&gt;47</title>
<path fill="none" stroke="black" d="M633.05,-36.69C632.42,-44.1 631.67,-52.98 630.96,-61.37"/>
<polygon fill="black" stroke="black" points="630.95,-61.51 634.43,-67.83 629.94,-73.47 626.46,-67.16 630.95,-61.51"/>
</g>
<!-- 31 -->
<g id="node32" class="node">
<title>31</title>
<polygon fill="none" stroke="black" points="510,-0.5 510,-36.5 581,-36.5 581,-0.5 510,-0.5"/>
<text text-anchor="middle" x="545.5" y="-14.8" font-family="Times,serif" font-size="14.00">InvalidStr</text>
</g>
<!-- 31&#45;&gt;27 -->
<g id="edge21" class="edge">
<title>31&#45;&gt;27</title>
<path fill="none" stroke="black" d="M546.95,-36.69C547.63,-44.71 548.45,-54.45 549.21,-63.43"/>
<polygon fill="none" stroke="black" points="545.73,-63.8 550.06,-73.47 552.71,-63.21 545.73,-63.8"/>
</g>
<!-- 32 -->
<g id="node33" class="node">
<title>32</title>
<polygon fill="none" stroke="black" points="720.5,-603.5 720.5,-639.5 806.5,-639.5 806.5,-603.5 720.5,-603.5"/>
<text text-anchor="middle" x="763.5" y="-617.8" font-family="Times,serif" font-size="14.00" fill="darkred">LockedError</text>
</g>
<!-- 33 -->
<g id="node34" class="node">
<title>33</title>
<polygon fill="none" stroke="black" points="504.5,-675.5 504.5,-711.5 558.5,-711.5 558.5,-675.5 504.5,-675.5"/>
<text text-anchor="middle" x="531.5" y="-689.8" font-family="Times,serif" font-size="14.00">Log</text>
</g>
<!-- 34 -->
<g id="node35" class="node">
<title>34</title>
<polygon fill="none" stroke="black" points="1432,-0.5 1432,-36.5 1509,-36.5 1509,-0.5 1432,-0.5"/>
<text text-anchor="middle" x="1470.5" y="-14.8" font-family="Times,serif" font-size="14.00">MapParam</text>
</g>
<!-- 34&#45;&gt;48 -->
<g id="edge22" class="edge">
<title>34&#45;&gt;48</title>
<path fill="none" stroke="black" d="M1459.12,-36.69C1453.52,-45.15 1446.66,-55.52 1440.45,-64.89"/>
<polygon fill="none" stroke="black" points="1437.37,-63.2 1434.77,-73.47 1443.21,-67.06 1437.37,-63.2"/>
</g>
<!-- 35 -->
<g id="node36" class="node">
<title>35</title>
<polygon fill="none" stroke="black" points="288.5,-195.5 288.5,-231.5 356.5,-231.5 356.5,-195.5 288.5,-195.5"/>
<text text-anchor="middle" x="322.5" y="-209.8" font-family="Times,serif" font-size="14.00">Memcalc</text>
</g>
<!-- 36&#45;&gt;13 -->
<g id="edge42" class="edge">
<title>36&#45;&gt;13</title>
<path fill="none" stroke="black" d="M1125.75,-109.69C1122.29,-117.36 1118.13,-126.61 1114.23,-135.26"/>
<polygon fill="black" stroke="black" points="1114.11,-135.53 1115.29,-142.64 1109.17,-146.47 1107.99,-139.36 1114.11,-135.53"/>
</g>
<!-- 38 -->
<g id="node39" class="node">
<title>38</title>
<polygon fill="none" stroke="black" points="745,-675.5 745,-711.5 818,-711.5 818,-675.5 745,-675.5"/>
<text text-anchor="middle" x="781.5" y="-689.8" font-family="Times,serif" font-size="14.00">MpiStatus</text>
</g>
<!-- 39 -->
<g id="node40" class="node">
<title>39</title>
<polygon fill="none" stroke="black" points="571,-385.5 571,-421.5 634,-421.5 634,-385.5 571,-385.5"/>
<text text-anchor="middle" x="602.5" y="-399.8" font-family="Times,serif" font-size="14.00" fill="darkred">NoMore</text>
</g>
<!-- 39&#45;&gt;22 -->
<g id="edge23" class="edge">
<title>39&#45;&gt;22</title>
<path fill="none" stroke="black" d="M612.67,-421.69C617.62,-430.06 623.68,-440.3 629.18,-449.6"/>
<polygon fill="none" stroke="black" points="626.32,-451.65 634.43,-458.47 632.35,-448.08 626.32,-451.65"/>
</g>
<!-- 40 -->
<g id="node41" class="node">
<title>40</title>
<polygon fill="none" stroke="black" points="407.5,-312.5 407.5,-348.5 489.5,-348.5 489.5,-312.5 407.5,-312.5"/>
<text text-anchor="middle" x="448.5" y="-326.8" font-family="Times,serif" font-size="14.00" fill="darkred">NotAFolder</text>
</g>
<!-- 40&#45;&gt;24 -->
<g id="edge24" class="edge">
<title>40&#45;&gt;24</title>
<path fill="none" stroke="black" d="M407.37,-346.14C404.38,-347.13 401.4,-348.09 398.5,-349 344.19,-366 327.18,-366.33 269.22,-384.92"/>
<polygon fill="none" stroke="black" points="267.98,-381.64 259.55,-388.06 270.14,-388.3 267.98,-381.64"/>
</g>
<!-- 41 -->
<g id="node42" class="node">
<title>41</title>
<polygon fill="none" stroke="black" points="383,-385.5 383,-421.5 454,-421.5 454,-385.5 383,-385.5"/>
<text text-anchor="middle" x="418.5" y="-399.8" font-family="Times,serif" font-size="14.00" fill="darkred">NotFound</text>
</g>
<!-- 41&#45;&gt;1 -->
<g id="edge25" class="edge">
<title>41&#45;&gt;1</title>
<path fill="none" stroke="black" d="M406.88,-421.69C401.1,-430.23 394.01,-440.73 387.62,-450.18"/>
<polygon fill="none" stroke="black" points="384.71,-448.23 382.01,-458.47 390.51,-452.15 384.71,-448.23"/>
</g>
<!-- 42 -->
<g id="node43" class="node">
<title>42</title>
<polygon fill="none" stroke="black" points="916,-385.5 916,-421.5 993,-421.5 993,-385.5 916,-385.5"/>
<text text-anchor="middle" x="954.5" y="-399.8" font-family="Times,serif" font-size="14.00" fill="darkred">OOMError</text>
</g>
<!-- 42&#45;&gt;0 -->
<g id="edge26" class="edge">
<title>42&#45;&gt;0</title>
<path fill="none" stroke="black" d="M931.5,-421.69C919.13,-430.93 903.71,-442.46 890.32,-452.47"/>
<polygon fill="none" stroke="black" points="888.2,-449.68 882.29,-458.47 892.39,-455.29 888.2,-449.68"/>
</g>
<!-- 43 -->
<g id="node44" class="node">
<title>43</title>
<polygon fill="none" stroke="black" points="1146.5,-146.5 1146.5,-182.5 1200.5,-182.5 1200.5,-146.5 1146.5,-146.5"/>
<text text-anchor="middle" x="1173.5" y="-160.8" font-family="Times,serif" font-size="14.00">Output</text>
</g>
<!-- 43&#45;&gt;61 -->
<g id="edge43" class="edge">
<title>43&#45;&gt;61</title>
<path fill="none" stroke="black" d="M1147.15,-182.51C1133.11,-191.57 1115.6,-202.87 1100.24,-212.79"/>
<polygon fill="black" stroke="black" points="1100.1,-212.88 1097.22,-219.49 1090.01,-219.39 1092.89,-212.77 1100.1,-212.88"/>
</g>
<!-- 44 -->
<g id="node45" class="node">
<title>44</title>
<polygon fill="none" stroke="black" points="1527.5,-0.5 1527.5,-36.5 1581.5,-36.5 1581.5,-0.5 1527.5,-0.5"/>
<text text-anchor="middle" x="1554.5" y="-14.8" font-family="Times,serif" font-size="14.00">Param</text>
</g>
<!-- 44&#45;&gt;48 -->
<g id="edge27" class="edge">
<title>44&#45;&gt;48</title>
<path fill="none" stroke="black" d="M1527.36,-34.21C1509.08,-44.12 1484.65,-57.36 1464.07,-68.51"/>
<polygon fill="none" stroke="black" points="1462.35,-65.47 1455.22,-73.31 1465.68,-71.62 1462.35,-65.47"/>
</g>
<!-- 45 -->
<g id="node46" class="node">
<title>45</title>
<polygon fill="none" stroke="black" points="1044,-0.5 1044,-36.5 1121,-36.5 1121,-0.5 1044,-0.5"/>
<text text-anchor="middle" x="1082.5" y="-14.8" font-family="Times,serif" font-size="14.00">Parameters</text>
</g>
<!-- 45&#45;&gt;36 -->
<g id="edge44" class="edge">
<title>45&#45;&gt;36</title>
<path fill="none" stroke="black" d="M1094.85,-36.69C1100.67,-44.8 1107.76,-54.66 1114.27,-63.72"/>
<polygon fill="black" stroke="black" points="1114.27,-63.72 1121.02,-66.26 1121.27,-73.47 1114.52,-70.93 1114.27,-63.72"/>
</g>
<!-- 46 -->
<g id="node47" class="node">
<title>46</title>
<polygon fill="none" stroke="black" points="1036,-73.5 1036,-109.5 1101,-109.5 1101,-73.5 1036,-73.5"/>
<text text-anchor="middle" x="1068.5" y="-87.8" font-family="Times,serif" font-size="14.00">Probalist</text>
</g>
<!-- 46&#45;&gt;13 -->
<g id="edge45" class="edge">
<title>46&#45;&gt;13</title>
<path fill="none" stroke="black" d="M1076.49,-109.69C1080.1,-117.45 1084.45,-126.82 1088.51,-135.55"/>
<polygon fill="black" stroke="black" points="1088.53,-135.59 1094.68,-139.34 1093.59,-146.47 1087.43,-142.72 1088.53,-135.59"/>
</g>
<!-- 47&#45;&gt;6 -->
<g id="edge28" class="edge">
<title>47&#45;&gt;6</title>
<path fill="none" stroke="black" d="M609.13,-109.69C599.01,-118.67 586.46,-129.81 575.41,-139.61"/>
<polygon fill="none" stroke="black" points="572.84,-137.22 567.69,-146.47 577.49,-142.45 572.84,-137.22"/>
</g>
<!-- 49 -->
<g id="node50" class="node">
<title>49</title>
<polygon fill="none" stroke="black" points="600,-675.5 600,-711.5 689,-711.5 689,-675.5 600,-675.5"/>
<text text-anchor="middle" x="644.5" y="-689.8" font-family="Times,serif" font-size="14.00">ResultReader</text>
</g>
<!-- 50 -->
<g id="node51" class="node">
<title>50</title>
<polygon fill="none" stroke="black" points="1218.5,-146.5 1218.5,-182.5 1304.5,-182.5 1304.5,-146.5 1218.5,-146.5"/>
<text text-anchor="middle" x="1261.5" y="-160.8" font-family="Times,serif" font-size="14.00">ResultWriter</text>
</g>
<!-- 50&#45;&gt;61 -->
<g id="edge46" class="edge">
<title>50&#45;&gt;61</title>
<path fill="none" stroke="black" d="M1218.05,-181.08C1183.98,-193.3 1136.94,-210.16 1103.73,-222.07"/>
<polygon fill="black" stroke="black" points="1103.47,-222.17 1099.17,-227.96 1092.17,-226.22 1096.47,-220.43 1103.47,-222.17"/>
</g>
<!-- 51 -->
<g id="node52" class="node">
<title>51</title>
<polygon fill="none" stroke="black" points="472,-385.5 472,-421.5 553,-421.5 553,-385.5 472,-385.5"/>
<text text-anchor="middle" x="512.5" y="-399.8" font-family="Times,serif" font-size="14.00" fill="darkred">RoundError</text>
</g>
<!-- 51&#45;&gt;1 -->
<g id="edge29" class="edge">
<title>51&#45;&gt;1</title>
<path fill="none" stroke="black" d="M478.49,-421.51C459.05,-431.23 434.47,-443.51 413.68,-453.91"/>
<polygon fill="none" stroke="black" points="412.11,-450.78 404.73,-458.39 415.24,-457.04 412.11,-450.78"/>
</g>
<!-- 52 -->
<g id="node53" class="node">
<title>52</title>
<polygon fill="none" stroke="black" points="840.5,-603.5 840.5,-639.5 894.5,-639.5 894.5,-603.5 840.5,-603.5"/>
<text text-anchor="middle" x="867.5" y="-617.8" font-family="Times,serif" font-size="14.00">Rule</text>
</g>
<!-- 53 -->
<g id="node54" class="node">
<title>53</title>
<polygon fill="none" stroke="black" points="1600,-0.5 1600,-36.5 1677,-36.5 1677,-0.5 1600,-0.5"/>
<text text-anchor="middle" x="1638.5" y="-14.8" font-family="Times,serif" font-size="14.00">RuleParam</text>
</g>
<!-- 53&#45;&gt;48 -->
<g id="edge30" class="edge">
<title>53&#45;&gt;48</title>
<path fill="none" stroke="black" d="M1599.77,-33.77C1596.64,-34.88 1593.52,-35.97 1590.5,-37 1551.61,-50.31 1507.28,-64.47 1474.07,-74.87"/>
<polygon fill="none" stroke="black" points="1472.64,-71.65 1464.14,-77.97 1474.73,-78.33 1472.64,-71.65"/>
</g>
<!-- 54 -->
<g id="node55" class="node">
<title>54</title>
<polygon fill="none" stroke="black" points="1139.5,-0.5 1139.5,-36.5 1231.5,-36.5 1231.5,-0.5 1139.5,-0.5"/>
<text text-anchor="middle" x="1185.5" y="-14.8" font-family="Times,serif" font-size="14.00">RulesetParam</text>
</g>
<!-- 54&#45;&gt;36 -->
<g id="edge47" class="edge">
<title>54&#45;&gt;36</title>
<path fill="none" stroke="black" d="M1172.91,-36.69C1166.97,-44.8 1159.75,-54.66 1153.11,-63.72"/>
<polygon fill="black" stroke="black" points="1153.06,-63.79 1152.74,-70.99 1145.97,-73.47 1146.29,-66.27 1153.06,-63.79"/>
</g>
<!-- 54&#45;&gt;36 -->
<g id="edge48" class="edge">
<title>54&#45;&gt;36</title>
<path fill="none" stroke="black" d="M1172.91,-36.69C1166.97,-44.8 1159.75,-54.66 1153.11,-63.72"/>
<polygon fill="black" stroke="black" points="1153.06,-63.79 1152.74,-70.99 1145.97,-73.47 1146.29,-66.27 1153.06,-63.79"/>
</g>
<!-- 54&#45;&gt;48 -->
<g id="edge31" class="edge">
<title>54&#45;&gt;48</title>
<path fill="none" stroke="black" d="M1231.63,-33.98C1234.97,-35.01 1238.28,-36.02 1241.5,-37 1285.87,-50.45 1336.47,-65.29 1373.04,-75.92"/>
<polygon fill="none" stroke="black" points="1372.38,-79.37 1382.96,-78.8 1374.33,-72.65 1372.38,-79.37"/>
</g>
<!-- 55 -->
<g id="node56" class="node">
<title>55</title>
<polygon fill="none" stroke="black" points="794.5,-146.5 794.5,-182.5 866.5,-182.5 866.5,-146.5 794.5,-146.5"/>
<text text-anchor="middle" x="830.5" y="-160.8" font-family="Times,serif" font-size="14.00">RunStatus</text>
</g>
<!-- 55&#45;&gt;61 -->
<g id="edge49" class="edge">
<title>55&#45;&gt;61</title>
<path fill="none" stroke="black" d="M866.74,-179.93C869.69,-181 872.64,-182.04 875.5,-183 925.86,-199.92 984.94,-216.15 1023.23,-226.21"/>
<polygon fill="black" stroke="black" points="1023.29,-226.23 1030.1,-223.87 1034.9,-229.25 1028.08,-231.61 1023.29,-226.23"/>
</g>
<!-- 56 -->
<g id="node57" class="node">
<title>56</title>
<polygon fill="none" stroke="black" points="1011,-385.5 1011,-421.5 1098,-421.5 1098,-385.5 1011,-385.5"/>
<text text-anchor="middle" x="1054.5" y="-399.8" font-family="Times,serif" font-size="14.00" fill="darkred">RuntimeLim</text>
</g>
<!-- 56&#45;&gt;0 -->
<g id="edge32" class="edge">
<title>56&#45;&gt;0</title>
<path fill="none" stroke="black" d="M1010.74,-420.43C977.46,-432.55 932.04,-449.09 899.68,-460.87"/>
<polygon fill="none" stroke="black" points="898.28,-457.65 890.09,-464.36 900.68,-464.23 898.28,-457.65"/>
</g>
<!-- 57 -->
<g id="node58" class="node">
<title>57</title>
<polygon fill="none" stroke="black" points="864.5,-699.5 864.5,-735.5 918.5,-735.5 918.5,-699.5 864.5,-699.5"/>
<text text-anchor="middle" x="891.5" y="-713.8" font-family="Times,serif" font-size="14.00">Scaler</text>
</g>
<!-- 58 -->
<g id="node59" class="node">
<title>58</title>
<polygon fill="none" stroke="black" points="885,-146.5 885,-182.5 978,-182.5 978,-146.5 885,-146.5"/>
<text text-anchor="middle" x="931.5" y="-160.8" font-family="Times,serif" font-size="14.00">SignalCatcher</text>
</g>
<!-- 58&#45;&gt;61 -->
<g id="edge50" class="edge">
<title>58&#45;&gt;61</title>
<path fill="none" stroke="black" d="M963.12,-182.51C981.44,-192.36 1004.66,-204.85 1024.16,-215.34"/>
<polygon fill="black" stroke="black" points="1024.27,-215.4 1031.45,-214.72 1034.84,-221.09 1027.66,-221.77 1024.27,-215.4"/>
</g>
<!-- 59 -->
<g id="node60" class="node">
<title>59</title>
<polygon fill="none" stroke="black" points="1250,-0.5 1250,-36.5 1323,-36.5 1323,-0.5 1250,-0.5"/>
<text text-anchor="middle" x="1286.5" y="-14.8" font-family="Times,serif" font-size="14.00">StatParam</text>
</g>
<!-- 59&#45;&gt;48 -->
<g id="edge33" class="edge">
<title>59&#45;&gt;48</title>
<path fill="none" stroke="black" d="M1319.31,-36.51C1337.99,-46.18 1361.57,-58.4 1381.57,-68.77"/>
<polygon fill="none" stroke="black" points="1379.99,-71.89 1390.48,-73.39 1383.21,-65.68 1379.99,-71.89"/>
</g>
<!-- 60 -->
<g id="node61" class="node">
<title>60</title>
<polygon fill="none" stroke="black" points="996.5,-146.5 996.5,-182.5 1056.5,-182.5 1056.5,-146.5 996.5,-146.5"/>
<text text-anchor="middle" x="1026.5" y="-160.8" font-family="Times,serif" font-size="14.00">Statistic</text>
</g>
<!-- 60&#45;&gt;61 -->
<g id="edge51" class="edge">
<title>60&#45;&gt;61</title>
<path fill="none" stroke="black" d="M1035.46,-182.69C1039.5,-190.45 1044.38,-199.82 1048.93,-208.55"/>
<polygon fill="black" stroke="black" points="1049.08,-208.83 1055.4,-212.3 1054.63,-219.47 1048.31,-216 1049.08,-208.83"/>
</g>
<!-- 62 -->
<g id="node63" class="node">
<title>62</title>
<polygon fill="none" stroke="black" points="504.5,-602.5 504.5,-638.5 558.5,-638.5 558.5,-602.5 504.5,-602.5"/>
<text text-anchor="middle" x="531.5" y="-616.8" font-family="Times,serif" font-size="14.00">Timer</text>
</g>
<!-- 62&#45;&gt;33 -->
<g id="edge52" class="edge">
<title>62&#45;&gt;33</title>
<path fill="none" stroke="black" d="M531.5,-638.69C531.5,-646.1 531.5,-654.98 531.5,-663.37"/>
<polygon fill="black" stroke="black" points="531.5,-663.47 535.5,-669.47 531.5,-675.47 527.5,-669.47 531.5,-663.47"/>
</g>
<!-- 63 -->
<g id="node64" class="node">
<title>63</title>
<polygon fill="none" stroke="black" points="652.5,-385.5 652.5,-421.5 720.5,-421.5 720.5,-385.5 652.5,-385.5"/>
<text text-anchor="middle" x="686.5" y="-399.8" font-family="Times,serif" font-size="14.00" fill="darkred">TimesUp</text>
</g>
<!-- 63&#45;&gt;22 -->
<g id="edge34" class="edge">
<title>63&#45;&gt;22</title>
<path fill="none" stroke="black" d="M676.33,-421.69C671.38,-430.06 665.32,-440.3 659.82,-449.6"/>
<polygon fill="none" stroke="black" points="656.65,-448.08 654.57,-458.47 662.68,-451.65 656.65,-448.08"/>
</g>
</g>
</svg>
