<?xml version="1.0" encoding="UTF-8" standalone="no"?>
<!DOCTYPE svg PUBLIC "-//W3C//DTD SVG 1.1//EN"
 "http://www.w3.org/Graphics/SVG/1.1/DTD/svg11.dtd">
<!-- Generated by graphviz version 2.43.0 (0)
 -->
<!-- Title: packages Pages: 1 -->
<svg width="1238pt" height="764pt"
 viewBox="0.00 0.00 1238.00 764.00" xmlns="http://www.w3.org/2000/svg" xmlns:xlink="http://www.w3.org/1999/xlink">
<g id="graph0" class="graph" transform="scale(1 1) rotate(0) translate(4 760)">
<title>packages</title>
<polygon fill="white" stroke="transparent" points="-4,4 -4,-760 1234,-760 1234,4 -4,4"/>
<!-- 0 -->
<g id="node1" class="node">
<title>0</title>
<polygon fill="none" stroke="black" points="706.5,-36 615.5,-36 615.5,0 706.5,0 706.5,-36"/>
<text text-anchor="middle" x="661" y="-14.3" font-family="Times,serif" font-size="14.00">metadynamic</text>
</g>
<!-- 2 -->
<g id="node3" class="node">
<title>2</title>
<polygon fill="none" stroke="black" points="607,-324 463,-324 463,-288 607,-288 607,-324"/>
<text text-anchor="middle" x="535" y="-302.3" font-family="Times,serif" font-size="14.00">metadynamic.chemical</text>
</g>
<!-- 0&#45;&gt;2 -->
<g id="edge1" class="edge">
<title>0&#45;&gt;2</title>
<path fill="none" stroke="black" d="M653.5,-36.03C632.36,-84.01 572.23,-220.5 546.69,-278.46"/>
<polygon fill="black" stroke="black" points="542.62,-287.69 542.54,-276.73 544.64,-283.12 546.66,-278.54 546.66,-278.54 546.66,-278.54 544.64,-283.12 550.77,-280.36 542.62,-287.69 542.62,-287.69"/>
</g>
<!-- 8 -->
<g id="node9" class="node">
<title>8</title>
<polygon fill="none" stroke="black" points="830.5,-108 689.5,-108 689.5,-72 830.5,-72 830.5,-108"/>
<text text-anchor="middle" x="760" y="-86.3" font-family="Times,serif" font-size="14.00">metadynamic.launcher</text>
</g>
<!-- 0&#45;&gt;8 -->
<g id="edge2" class="edge">
<title>0&#45;&gt;8</title>
<path fill="none" stroke="black" d="M685.22,-36.12C697.92,-45.11 713.66,-56.24 727.42,-65.97"/>
<polygon fill="black" stroke="black" points="735.69,-71.81 724.93,-69.71 731.61,-68.92 727.52,-66.04 727.52,-66.04 727.52,-66.04 731.61,-68.92 730.12,-62.36 735.69,-71.81 735.69,-71.81"/>
</g>
<!-- 9 -->
<g id="node10" class="node">
<title>9</title>
<polygon fill="none" stroke="black" points="568.5,-540 439.5,-540 439.5,-504 568.5,-504 568.5,-540"/>
<text text-anchor="middle" x="504" y="-518.3" font-family="Times,serif" font-size="14.00">metadynamic.logger</text>
</g>
<!-- 0&#45;&gt;9 -->
<g id="edge3" class="edge">
<title>0&#45;&gt;9</title>
<path fill="none" stroke="black" d="M640.71,-36.25C596.34,-75.48 491.67,-176.64 454,-288 432.9,-350.39 473.33,-368.03 489,-432 494,-452.42 497.88,-475.88 500.44,-493.58"/>
<polygon fill="black" stroke="black" points="501.86,-503.79 496.02,-494.5 501.17,-498.83 500.48,-493.88 500.48,-493.88 500.48,-493.88 501.17,-498.83 504.94,-493.26 501.86,-503.79 501.86,-503.79"/>
</g>
<!-- 10 -->
<g id="node11" class="node">
<title>10</title>
<polygon fill="none" stroke="black" points="410,-684 294,-684 294,-648 410,-648 410,-684"/>
<text text-anchor="middle" x="352" y="-662.3" font-family="Times,serif" font-size="14.00">metadynamic.mpi</text>
</g>
<!-- 0&#45;&gt;10 -->
<g id="edge4" class="edge">
<title>0&#45;&gt;10</title>
<path fill="none" stroke="black" d="M615.44,-19.64C471.82,-22.89 38,-42.51 38,-161 38,-161 38,-161 38,-451 38,-569.07 191.48,-626.65 283.83,-650.61"/>
<polygon fill="black" stroke="black" points="293.67,-653.09 282.88,-655.01 288.83,-651.87 283.98,-650.64 283.98,-650.64 283.98,-650.64 288.83,-651.87 285.08,-646.28 293.67,-653.09 293.67,-653.09"/>
</g>
<!-- 14 -->
<g id="node15" class="node">
<title>14</title>
<polygon fill="none" stroke="black" points="1054.5,-252 929.5,-252 929.5,-216 1054.5,-216 1054.5,-252"/>
<text text-anchor="middle" x="992" y="-230.3" font-family="Times,serif" font-size="14.00">metadynamic.result</text>
</g>
<!-- 0&#45;&gt;14 -->
<g id="edge5" class="edge">
<title>0&#45;&gt;14</title>
<path fill="none" stroke="black" d="M706.83,-25.87C744.47,-33.05 798.05,-46.88 839,-72 897.64,-107.96 948.84,-171.98 974.5,-207.49"/>
<polygon fill="black" stroke="black" points="980.47,-215.87 971,-210.33 977.57,-211.8 974.67,-207.72 974.67,-207.72 974.67,-207.72 977.57,-211.8 978.34,-205.11 980.47,-215.87 980.47,-215.87"/>
</g>
<!-- 16 -->
<g id="node17" class="node">
<title>16</title>
<polygon fill="none" stroke="black" points="777.5,-180 644.5,-180 644.5,-144 777.5,-144 777.5,-180"/>
<text text-anchor="middle" x="711" y="-158.3" font-family="Times,serif" font-size="14.00">metadynamic.system</text>
</g>
<!-- 0&#45;&gt;16 -->
<g id="edge6" class="edge">
<title>0&#45;&gt;16</title>
<path fill="none" stroke="black" d="M663.02,-36.2C665.53,-54.47 670.69,-83.99 680,-108 683.56,-117.2 688.6,-126.67 693.58,-135.02"/>
<polygon fill="black" stroke="black" points="698.89,-143.57 689.79,-137.45 696.25,-139.32 693.62,-135.07 693.62,-135.07 693.62,-135.07 696.25,-139.32 697.44,-132.7 698.89,-143.57 698.89,-143.57"/>
</g>
<!-- 17 -->
<g id="node18" class="node">
<title>17</title>
<polygon fill="none" stroke="black" points="1141,-684 1007,-684 1007,-648 1141,-648 1141,-684"/>
<text text-anchor="middle" x="1074" y="-662.3" font-family="Times,serif" font-size="14.00">metadynamic.version</text>
</g>
<!-- 0&#45;&gt;17 -->
<g id="edge7" class="edge">
<title>0&#45;&gt;17</title>
<path fill="none" stroke="black" d="M706.6,-20.62C841.62,-26.64 1230,-53.33 1230,-161 1230,-161 1230,-161 1230,-523 1230,-580.39 1171.55,-620.73 1126.2,-643.38"/>
<polygon fill="black" stroke="black" points="1117.04,-647.82 1124.08,-639.41 1121.54,-645.64 1126.04,-643.46 1126.04,-643.46 1126.04,-643.46 1121.54,-645.64 1128,-647.51 1117.04,-647.82 1117.04,-647.82"/>
</g>
<!-- 1 -->
<g id="node2" class="node">
<title>1</title>
<polygon fill="none" stroke="black" points="976,-756 850,-756 850,-720 976,-720 976,-756"/>
<text text-anchor="middle" x="913" y="-734.3" font-family="Times,serif" font-size="14.00">metadynamic.caster</text>
</g>
<!-- 3 -->
<g id="node4" class="node">
<title>3</title>
<polygon fill="none" stroke="black" points="421,-396 279,-396 279,-360 421,-360 421,-396"/>
<text text-anchor="middle" x="350" y="-374.3" font-family="Times,serif" font-size="14.00">metadynamic.collector</text>
</g>
<!-- 2&#45;&gt;3 -->
<g id="edge8" class="edge">
<title>2&#45;&gt;3</title>
<path fill="none" stroke="black" d="M489.74,-324.12C464,-333.86 431.59,-346.13 404.46,-356.39"/>
<polygon fill="black" stroke="black" points="395.11,-359.93 402.87,-352.18 399.79,-358.16 404.46,-356.39 404.46,-356.39 404.46,-356.39 399.79,-358.16 406.05,-360.6 395.11,-359.93 395.11,-359.93"/>
</g>
<!-- 4 -->
<g id="node5" class="node">
<title>4</title>
<polygon fill="none" stroke="black" points="287.5,-756 168.5,-756 168.5,-720 287.5,-720 287.5,-756"/>
<text text-anchor="middle" x="228" y="-734.3" font-family="Times,serif" font-size="14.00">metadynamic.ends</text>
</g>
<!-- 2&#45;&gt;4 -->
<g id="edge9" class="edge">
<title>2&#45;&gt;4</title>
<path fill="none" stroke="black" d="M462.87,-311.26C402.98,-316.89 316.66,-329.91 247,-360 197.39,-381.44 173.41,-383.78 149,-432 122.96,-483.44 40.24,-427.74 169,-684 174.65,-695.25 183.79,-705.22 193.2,-713.39"/>
<polygon fill="black" stroke="black" points="201.1,-719.82 190.51,-717 197.23,-716.67 193.35,-713.51 193.35,-713.51 193.35,-713.51 197.23,-716.67 196.19,-710.02 201.1,-719.82 201.1,-719.82"/>
</g>
<!-- 6 -->
<g id="node7" class="node">
<title>6</title>
<polygon fill="none" stroke="black" points="977,-684 849,-684 849,-648 977,-648 977,-684"/>
<text text-anchor="middle" x="913" y="-662.3" font-family="Times,serif" font-size="14.00">metadynamic.inputs</text>
</g>
<!-- 2&#45;&gt;6 -->
<g id="edge10" class="edge">
<title>2&#45;&gt;6</title>
<path fill="none" stroke="black" d="M607.29,-319.17C676.48,-334.35 779.58,-366.71 844,-432 900.21,-488.98 911,-589.47 912.82,-637.69"/>
<polygon fill="black" stroke="black" points="913.1,-647.96 908.33,-638.09 912.97,-642.96 912.83,-637.97 912.83,-637.97 912.83,-637.97 912.97,-642.96 917.33,-637.84 913.1,-647.96 913.1,-647.96"/>
</g>
<!-- 7 -->
<g id="node8" class="node">
<title>7</title>
<polygon fill="none" stroke="black" points="621,-684 499,-684 499,-648 621,-648 621,-684"/>
<text text-anchor="middle" x="560" y="-662.3" font-family="Times,serif" font-size="14.00">metadynamic.inval</text>
</g>
<!-- 2&#45;&gt;7 -->
<g id="edge11" class="edge">
<title>2&#45;&gt;7</title>
<path fill="none" stroke="black" d="M543.49,-324.27C548.15,-334.45 553.65,-347.7 557,-360 578.14,-437.67 582.44,-459.69 577,-540 574.71,-573.84 568.97,-612.49 564.79,-637.74"/>
<polygon fill="black" stroke="black" points="563.11,-647.69 560.34,-637.08 563.94,-642.75 564.78,-637.82 564.78,-637.82 564.78,-637.82 563.94,-642.75 569.21,-638.57 563.11,-647.69 563.11,-647.69"/>
</g>
<!-- 2&#45;&gt;9 -->
<g id="edge12" class="edge">
<title>2&#45;&gt;9</title>
<path fill="none" stroke="black" d="M537.91,-324.31C542.3,-354.23 548.74,-417.28 535,-468 532.42,-477.52 527.66,-487.08 522.62,-495.41"/>
<polygon fill="black" stroke="black" points="517.15,-503.91 518.78,-493.06 519.85,-499.71 522.56,-495.5 522.56,-495.5 522.56,-495.5 519.85,-499.71 526.35,-497.94 517.15,-503.91 517.15,-503.91"/>
</g>
<!-- 13 -->
<g id="node14" class="node">
<title>13</title>
<polygon fill="none" stroke="black" points="454.5,-468 329.5,-468 329.5,-432 454.5,-432 454.5,-468"/>
<text text-anchor="middle" x="392" y="-446.3" font-family="Times,serif" font-size="14.00">metadynamic.proba</text>
</g>
<!-- 2&#45;&gt;13 -->
<g id="edge13" class="edge">
<title>2&#45;&gt;13</title>
<path fill="none" stroke="black" d="M517.75,-324.13C492.52,-349.18 445.43,-395.95 416.58,-424.59"/>
<polygon fill="black" stroke="black" points="409.31,-431.81 413.24,-421.57 412.86,-428.29 416.41,-424.76 416.41,-424.76 416.41,-424.76 412.86,-428.29 419.58,-427.96 409.31,-431.81 409.31,-431.81"/>
</g>
<!-- 15 -->
<g id="node16" class="node">
<title>15</title>
<polygon fill="none" stroke="black" points="311.5,-468 180.5,-468 180.5,-432 311.5,-432 311.5,-468"/>
<text text-anchor="middle" x="246" y="-446.3" font-family="Times,serif" font-size="14.00">metadynamic.ruleset</text>
</g>
<!-- 2&#45;&gt;15 -->
<g id="edge14" class="edge">
<title>2&#45;&gt;15</title>
<path fill="none" stroke="black" d="M462.71,-312.95C394.07,-320.06 297.4,-334.35 270,-360 253.16,-375.76 247.68,-401.98 246.1,-421.89"/>
<polygon fill="black" stroke="black" points="245.58,-431.91 241.6,-421.69 245.84,-426.92 246.1,-421.92 246.1,-421.92 246.1,-421.92 245.84,-426.92 250.59,-422.16 245.58,-431.91 245.58,-431.91"/>
</g>
<!-- 3&#45;&gt;4 -->
<g id="edge15" class="edge">
<title>3&#45;&gt;4</title>
<path fill="none" stroke="black" d="M278.54,-391.18C234.61,-400.28 184.28,-414.21 171,-432 106.88,-517.86 176.83,-654.45 211.2,-711.08"/>
<polygon fill="black" stroke="black" points="216.58,-719.78 207.49,-713.64 213.95,-715.52 211.32,-711.27 211.32,-711.27 211.32,-711.27 213.95,-715.52 215.15,-708.9 216.58,-719.78 216.58,-719.78"/>
</g>
<!-- 3&#45;&gt;9 -->
<g id="edge16" class="edge">
<title>3&#45;&gt;9</title>
<path fill="none" stroke="black" d="M405.7,-396.07C425.7,-404.38 447.2,-416.09 463,-432 480.07,-449.19 490.84,-474.79 497.03,-494.13"/>
<polygon fill="black" stroke="black" points="499.94,-503.87 492.76,-495.57 498.51,-499.08 497.08,-494.29 497.08,-494.29 497.08,-494.29 498.51,-499.08 501.39,-493 499.94,-503.87 499.94,-503.87"/>
</g>
<!-- 3&#45;&gt;15 -->
<g id="edge17" class="edge">
<title>3&#45;&gt;15</title>
<path fill="none" stroke="black" d="M324.56,-396.12C311.21,-405.11 294.68,-416.24 280.22,-425.97"/>
<polygon fill="black" stroke="black" points="271.54,-431.81 277.32,-422.49 275.69,-429.02 279.83,-426.23 279.83,-426.23 279.83,-426.23 275.69,-429.02 282.35,-429.96 271.54,-431.81 271.54,-431.81"/>
</g>
<!-- 5 -->
<g id="node6" class="node">
<title>5</title>
<polygon fill="none" stroke="black" points="834.5,-612 715.5,-612 715.5,-576 834.5,-576 834.5,-612"/>
<text text-anchor="middle" x="775" y="-590.3" font-family="Times,serif" font-size="14.00">metadynamic.hdf5</text>
</g>
<!-- 5&#45;&gt;1 -->
<g id="edge18" class="edge">
<title>5&#45;&gt;1</title>
<path fill="none" stroke="black" d="M785.33,-612.29C797.1,-631.18 817.65,-661.71 840,-684 851.08,-695.05 864.64,-705.55 877.05,-714.25"/>
<polygon fill="black" stroke="black" points="885.41,-719.96 874.61,-718.03 881.28,-717.14 877.15,-714.32 877.15,-714.32 877.15,-714.32 881.28,-717.14 879.69,-710.6 885.41,-719.96 885.41,-719.96"/>
</g>
<!-- 5&#45;&gt;4 -->
<g id="edge19" class="edge">
<title>5&#45;&gt;4</title>
<path fill="none" stroke="black" d="M759.47,-612.13C739.42,-633 702.41,-667.51 663,-684 598.73,-710.9 403.77,-726.44 298.02,-733.1"/>
<polygon fill="black" stroke="black" points="287.76,-733.74 297.46,-728.63 292.75,-733.43 297.74,-733.12 297.74,-733.12 297.74,-733.12 292.75,-733.43 298.01,-737.61 287.76,-733.74 287.76,-733.74"/>
</g>
<!-- 5&#45;&gt;6 -->
<g id="edge20" class="edge">
<title>5&#45;&gt;6</title>
<path fill="none" stroke="black" d="M808.76,-612.12C827.22,-621.49 850.28,-633.19 870.02,-643.2"/>
<polygon fill="black" stroke="black" points="879.11,-647.81 868.16,-647.3 874.65,-645.55 870.19,-643.29 870.19,-643.29 870.19,-643.29 874.65,-645.55 872.23,-639.27 879.11,-647.81 879.11,-647.81"/>
</g>
<!-- 5&#45;&gt;7 -->
<g id="edge21" class="edge">
<title>5&#45;&gt;7</title>
<path fill="none" stroke="black" d="M722.68,-612.03C692.38,-621.9 654.05,-634.38 622.21,-644.75"/>
<polygon fill="black" stroke="black" points="612.55,-647.89 620.67,-640.51 617.31,-646.34 622.06,-644.79 622.06,-644.79 622.06,-644.79 617.31,-646.34 623.46,-649.07 612.55,-647.89 612.55,-647.89"/>
</g>
<!-- 5&#45;&gt;10 -->
<g id="edge22" class="edge">
<title>5&#45;&gt;10</title>
<path fill="none" stroke="black" d="M715.29,-604.88C637.46,-617.76 501.68,-640.23 419.98,-653.75"/>
<polygon fill="black" stroke="black" points="410.05,-655.39 419.18,-649.32 414.98,-654.58 419.91,-653.76 419.91,-653.76 419.91,-653.76 414.98,-654.58 420.65,-658.2 410.05,-655.39 410.05,-655.39"/>
</g>
<!-- 5&#45;&gt;17 -->
<g id="edge23" class="edge">
<title>5&#45;&gt;17</title>
<path fill="none" stroke="black" d="M834.79,-609C881.36,-619.9 946.37,-635.12 996.86,-646.94"/>
<polygon fill="black" stroke="black" points="1006.76,-649.26 995.99,-651.36 1001.89,-648.12 997.02,-646.98 997.02,-646.98 997.02,-646.98 1001.89,-648.12 998.04,-642.6 1006.76,-649.26 1006.76,-649.26"/>
</g>
<!-- 6&#45;&gt;1 -->
<g id="edge24" class="edge">
<title>6&#45;&gt;1</title>
<path fill="none" stroke="black" d="M913,-684.3C913,-692.02 913,-701.29 913,-709.89"/>
<polygon fill="black" stroke="black" points="913,-719.9 908.5,-709.9 913,-714.9 913,-709.9 913,-709.9 913,-709.9 913,-714.9 917.5,-709.9 913,-719.9 913,-719.9"/>
</g>
<!-- 6&#45;&gt;4 -->
<g id="edge25" class="edge">
<title>6&#45;&gt;4</title>
<path fill="none" stroke="black" d="M848.86,-673.55C720.18,-686.7 431.42,-716.21 298.02,-729.84"/>
<polygon fill="black" stroke="black" points="287.91,-730.88 297.4,-725.38 292.89,-730.37 297.86,-729.86 297.86,-729.86 297.86,-729.86 292.89,-730.37 298.32,-734.34 287.91,-730.88 287.91,-730.88"/>
</g>
<!-- 8&#45;&gt;14 -->
<g id="edge26" class="edge">
<title>8&#45;&gt;14</title>
<path fill="none" stroke="black" d="M787.98,-108.13C829.88,-133.77 908.92,-182.15 955.36,-210.57"/>
<polygon fill="black" stroke="black" points="963.92,-215.81 953.04,-214.43 959.65,-213.2 955.39,-210.59 955.39,-210.59 955.39,-210.59 959.65,-213.2 957.74,-206.75 963.92,-215.81 963.92,-215.81"/>
</g>
<!-- 8&#45;&gt;16 -->
<g id="edge27" class="edge">
<title>8&#45;&gt;16</title>
<path fill="none" stroke="black" d="M747.89,-108.3C742.13,-116.53 735.14,-126.52 728.79,-135.58"/>
<polygon fill="black" stroke="black" points="722.97,-143.9 725.02,-133.12 725.84,-139.8 728.71,-135.7 728.71,-135.7 728.71,-135.7 725.84,-139.8 732.39,-138.28 722.97,-143.9 722.97,-143.9"/>
</g>
<!-- 9&#45;&gt;5 -->
<g id="edge28" class="edge">
<title>9&#45;&gt;5</title>
<path fill="none" stroke="black" d="M568.57,-539.68C609.73,-550.31 663.05,-564.08 705.19,-574.97"/>
<polygon fill="black" stroke="black" points="715.1,-577.53 704.29,-579.38 710.26,-576.28 705.42,-575.03 705.42,-575.03 705.42,-575.03 710.26,-576.28 706.54,-570.67 715.1,-577.53 715.1,-577.53"/>
</g>
<!-- 9&#45;&gt;7 -->
<g id="edge29" class="edge">
<title>9&#45;&gt;7</title>
<path fill="none" stroke="black" d="M510.75,-540.13C520.38,-564.54 538.14,-609.57 549.5,-638.36"/>
<polygon fill="black" stroke="black" points="553.22,-647.81 545.37,-640.16 551.39,-643.16 549.55,-638.51 549.55,-638.51 549.55,-638.51 551.39,-643.16 553.74,-636.86 553.22,-647.81 553.22,-647.81"/>
</g>
<!-- 9&#45;&gt;10 -->
<g id="edge30" class="edge">
<title>9&#45;&gt;10</title>
<path fill="none" stroke="black" d="M473.55,-540.12C457.91,-549.65 439.04,-562.33 424,-576 402.93,-595.16 382.88,-620.76 369.32,-639.58"/>
<polygon fill="black" stroke="black" points="363.39,-647.96 365.49,-637.2 366.28,-643.88 369.17,-639.8 369.17,-639.8 369.17,-639.8 366.28,-643.88 372.84,-642.4 363.39,-647.96 363.39,-647.96"/>
</g>
<!-- 11 -->
<g id="node12" class="node">
<title>11</title>
<polygon fill="none" stroke="black" points="1125.5,-396 986.5,-396 986.5,-360 1125.5,-360 1125.5,-396"/>
<text text-anchor="middle" x="1056" y="-374.3" font-family="Times,serif" font-size="14.00">metadynamic.network</text>
</g>
<!-- 11&#45;&gt;6 -->
<g id="edge31" class="edge">
<title>11&#45;&gt;6</title>
<path fill="none" stroke="black" d="M1055.17,-396.23C1052.41,-437.34 1040.62,-542.94 991,-612 982.23,-624.21 969.72,-634.48 957.28,-642.63"/>
<polygon fill="black" stroke="black" points="948.72,-647.93 954.85,-638.83 952.97,-645.29 957.22,-642.66 957.22,-642.66 957.22,-642.66 952.97,-645.29 959.59,-646.49 948.72,-647.93 948.72,-647.93"/>
</g>
<!-- 12 -->
<g id="node13" class="node">
<title>12</title>
<polygon fill="none" stroke="black" points="835,-468 701,-468 701,-432 835,-432 835,-468"/>
<text text-anchor="middle" x="768" y="-446.3" font-family="Times,serif" font-size="14.00">metadynamic.outputs</text>
</g>
<!-- 12&#45;&gt;4 -->
<g id="edge32" class="edge">
<title>12&#45;&gt;4</title>
<path fill="none" stroke="black" d="M759.01,-468.07C731.79,-519.49 650.79,-670.27 630,-684 576.83,-719.11 397.83,-731.07 297.55,-735.06"/>
<polygon fill="black" stroke="black" points="287.51,-735.44 297.33,-730.56 292.5,-735.25 297.5,-735.06 297.5,-735.06 297.5,-735.06 292.5,-735.25 297.67,-739.56 287.51,-735.44 287.51,-735.44"/>
</g>
<!-- 12&#45;&gt;6 -->
<g id="edge33" class="edge">
<title>12&#45;&gt;6</title>
<path fill="none" stroke="black" d="M786.32,-468.12C809.85,-490.9 850.78,-533.31 877,-576 889.01,-595.56 898.52,-619.84 904.74,-638.09"/>
<polygon fill="black" stroke="black" points="907.94,-647.8 900.54,-639.71 906.37,-643.05 904.81,-638.3 904.81,-638.3 904.81,-638.3 906.37,-643.05 909.09,-636.9 907.94,-647.8 907.94,-647.8"/>
</g>
<!-- 12&#45;&gt;9 -->
<g id="edge34" class="edge">
<title>12&#45;&gt;9</title>
<path fill="none" stroke="black" d="M703.76,-468.03C665.91,-478.07 617.86,-490.81 578.38,-501.28"/>
<polygon fill="black" stroke="black" points="568.53,-503.89 577.04,-496.98 573.37,-502.61 578.2,-501.33 578.2,-501.33 578.2,-501.33 573.37,-502.61 579.35,-505.68 568.53,-503.89 568.53,-503.89"/>
</g>
<!-- 12&#45;&gt;10 -->
<g id="edge35" class="edge">
<title>12&#45;&gt;10</title>
<path fill="none" stroke="black" d="M734.66,-468.15C659.57,-506.78 477.28,-600.55 394.34,-643.22"/>
<polygon fill="black" stroke="black" points="385.21,-647.92 392.04,-639.34 389.66,-645.63 394.1,-643.34 394.1,-643.34 394.1,-643.34 389.66,-645.63 396.16,-647.34 385.21,-647.92 385.21,-647.92"/>
</g>
<!-- 13&#45;&gt;4 -->
<g id="edge36" class="edge">
<title>13&#45;&gt;4</title>
<path fill="none" stroke="black" d="M382.23,-468.03C354.67,-516.11 276.13,-653.07 243.02,-710.81"/>
<polygon fill="black" stroke="black" points="237.92,-719.69 238.99,-708.78 240.41,-715.36 242.9,-711.02 242.9,-711.02 242.9,-711.02 240.41,-715.36 246.8,-713.26 237.92,-719.69 237.92,-719.69"/>
</g>
<!-- 13&#45;&gt;7 -->
<g id="edge37" class="edge">
<title>13&#45;&gt;7</title>
<path fill="none" stroke="black" d="M397.02,-468.09C403.02,-486.81 414.25,-517.19 430,-540 457.85,-580.34 500.25,-618.08 528.99,-641.32"/>
<polygon fill="black" stroke="black" points="537.08,-647.77 526.45,-645.06 533.17,-644.65 529.26,-641.54 529.26,-641.54 529.26,-641.54 533.17,-644.65 532.07,-638.02 537.08,-647.77 537.08,-647.77"/>
</g>
<!-- 13&#45;&gt;9 -->
<g id="edge38" class="edge">
<title>13&#45;&gt;9</title>
<path fill="none" stroke="black" d="M419.4,-468.12C433.91,-477.19 451.92,-488.45 467.59,-498.24"/>
<polygon fill="black" stroke="black" points="476.5,-503.81 465.63,-502.33 472.26,-501.16 468.02,-498.51 468.02,-498.51 468.02,-498.51 472.26,-501.16 470.4,-494.69 476.5,-503.81 476.5,-503.81"/>
</g>
<!-- 14&#45;&gt;1 -->
<g id="edge39" class="edge">
<title>14&#45;&gt;1</title>
<path fill="none" stroke="black" d="M1054.73,-251.01C1113.39,-270.19 1192,-308.65 1192,-377 1192,-377 1192,-377 1192,-595 1192,-638.74 1184.15,-656.67 1150,-684 1124.99,-704.02 1046.16,-718.94 986.22,-727.77"/>
<polygon fill="black" stroke="black" points="976.03,-729.24 985.28,-723.36 980.97,-728.53 985.92,-727.82 985.92,-727.82 985.92,-727.82 980.97,-728.53 986.57,-732.27 976.03,-729.24 976.03,-729.24"/>
</g>
<!-- 14&#45;&gt;2 -->
<g id="edge40" class="edge">
<title>14&#45;&gt;2</title>
<path fill="none" stroke="black" d="M929.41,-244.59C848.44,-256.99 707.16,-278.63 617.5,-292.36"/>
<polygon fill="black" stroke="black" points="607.37,-293.92 616.57,-287.95 612.31,-293.16 617.25,-292.4 617.25,-292.4 617.25,-292.4 612.31,-293.16 617.93,-296.85 607.37,-293.92 607.37,-293.92"/>
</g>
<!-- 14&#45;&gt;6 -->
<g id="edge41" class="edge">
<title>14&#45;&gt;6</title>
<path fill="none" stroke="black" d="M1037.56,-252.1C1085.47,-273.39 1154,-314.73 1154,-377 1154,-377 1154,-377 1154,-523 1154,-565.58 1040.9,-616.46 969.65,-644.29"/>
<polygon fill="black" stroke="black" points="960.33,-647.9 968.03,-640.09 964.99,-646.09 969.65,-644.29 969.65,-644.29 969.65,-644.29 964.99,-646.09 971.28,-648.49 960.33,-647.9 960.33,-647.9"/>
</g>
<!-- 14&#45;&gt;7 -->
<g id="edge42" class="edge">
<title>14&#45;&gt;7</title>
<path fill="none" stroke="black" d="M984.12,-252.1C964.7,-292.95 911.21,-398 844,-468 803.93,-509.73 663.07,-600.38 596.01,-642.56"/>
<polygon fill="black" stroke="black" points="587.44,-647.95 593.52,-638.82 591.68,-645.29 595.91,-642.63 595.91,-642.63 595.91,-642.63 591.68,-645.29 598.3,-646.44 587.44,-647.95 587.44,-647.95"/>
</g>
<!-- 14&#45;&gt;11 -->
<g id="edge43" class="edge">
<title>14&#45;&gt;11</title>
<path fill="none" stroke="black" d="M999.72,-252.13C1010.72,-276.54 1031.02,-321.57 1044,-350.36"/>
<polygon fill="black" stroke="black" points="1048.25,-359.81 1040.04,-352.54 1046.2,-355.25 1044.14,-350.69 1044.14,-350.69 1044.14,-350.69 1046.2,-355.25 1048.25,-348.84 1048.25,-359.81 1048.25,-359.81"/>
</g>
<!-- 15&#45;&gt;4 -->
<g id="edge44" class="edge">
<title>15&#45;&gt;4</title>
<path fill="none" stroke="black" d="M237.65,-468.12C221.82,-501.65 187.93,-578.79 176,-648 173.28,-663.77 169.95,-669.19 176,-684 180.49,-694.98 188.47,-704.92 196.85,-713.14"/>
<polygon fill="black" stroke="black" points="204.25,-719.91 193.83,-716.48 200.56,-716.53 196.87,-713.16 196.87,-713.16 196.87,-713.16 200.56,-716.53 199.91,-709.84 204.25,-719.91 204.25,-719.91"/>
</g>
<!-- 15&#45;&gt;6 -->
<g id="edge45" class="edge">
<title>15&#45;&gt;6</title>
<path fill="none" stroke="black" d="M273.12,-468.04C307.96,-488.99 370.99,-523.75 430,-540 518.82,-564.46 761.96,-532.19 843,-576 856.72,-583.42 880.34,-615.85 896.3,-639.43"/>
<polygon fill="black" stroke="black" points="902.01,-647.96 892.71,-642.15 899.23,-643.8 896.45,-639.65 896.45,-639.65 896.45,-639.65 899.23,-643.8 900.19,-637.15 902.01,-647.96 902.01,-647.96"/>
</g>
<!-- 15&#45;&gt;7 -->
<g id="edge46" class="edge">
<title>15&#45;&gt;7</title>
<path fill="none" stroke="black" d="M257.36,-468.12C270.8,-487.42 294.7,-518.85 321,-540 378.25,-586.03 455.09,-622.59 506.01,-644"/>
<polygon fill="black" stroke="black" points="515.52,-647.95 504.56,-648.27 510.9,-646.03 506.29,-644.11 506.29,-644.11 506.29,-644.11 510.9,-646.03 508.01,-639.96 515.52,-647.95 515.52,-647.95"/>
</g>
<!-- 15&#45;&gt;9 -->
<g id="edge47" class="edge">
<title>15&#45;&gt;9</title>
<path fill="none" stroke="black" d="M308.78,-468.03C345.62,-478.03 392.33,-490.7 430.82,-501.15"/>
<polygon fill="black" stroke="black" points="440.93,-503.89 430.11,-505.61 436.11,-502.58 431.28,-501.27 431.28,-501.27 431.28,-501.27 436.11,-502.58 432.46,-496.93 440.93,-503.89 440.93,-503.89"/>
</g>
<!-- 15&#45;&gt;10 -->
<g id="edge48" class="edge">
<title>15&#45;&gt;10</title>
<path fill="none" stroke="black" d="M252.54,-468.31C259.54,-486.43 271.23,-515.58 283,-540 299.89,-575.05 322.01,-614.1 336.59,-639.08"/>
<polygon fill="black" stroke="black" points="341.79,-647.93 332.84,-641.58 339.25,-643.62 336.72,-639.3 336.72,-639.3 336.72,-639.3 339.25,-643.62 340.6,-637.02 341.79,-647.93 341.79,-647.93"/>
</g>
<!-- 16&#45;&gt;2 -->
<g id="edge49" class="edge">
<title>16&#45;&gt;2</title>
<path fill="none" stroke="black" d="M677.12,-180.11C659.63,-189.63 638.38,-202.31 621,-216 596.49,-235.32 572.1,-261.36 555.6,-280.29"/>
<polygon fill="black" stroke="black" points="549.03,-287.92 552.14,-277.4 552.29,-284.13 555.55,-280.34 555.55,-280.34 555.55,-280.34 552.29,-284.13 558.96,-283.28 549.03,-287.92 549.03,-287.92"/>
</g>
<!-- 16&#45;&gt;4 -->
<g id="edge50" class="edge">
<title>16&#45;&gt;4</title>
<path fill="none" stroke="black" d="M644.43,-168.7C467.68,-185.66 0,-243.18 0,-377 0,-377 0,-377 0,-595 0,-670.52 91.23,-707.31 158.28,-724.16"/>
<polygon fill="black" stroke="black" points="168.39,-726.6 157.62,-728.63 163.53,-725.43 158.67,-724.26 158.67,-724.26 158.67,-724.26 163.53,-725.43 159.73,-719.88 168.39,-726.6 168.39,-726.6"/>
</g>
<!-- 16&#45;&gt;5 -->
<g id="edge51" class="edge">
<title>16&#45;&gt;5</title>
<path fill="none" stroke="black" d="M752.13,-180.1C797.15,-201.88 863,-244.15 863,-305 863,-305 863,-305 863,-451 863,-497.99 827.76,-542.37 801.88,-568.63"/>
<polygon fill="black" stroke="black" points="794.53,-575.86 798.5,-565.64 798.09,-572.36 801.66,-568.85 801.66,-568.85 801.66,-568.85 798.09,-572.36 804.81,-572.06 794.53,-575.86 794.53,-575.86"/>
</g>
<!-- 16&#45;&gt;6 -->
<g id="edge52" class="edge">
<title>16&#45;&gt;6</title>
<path fill="none" stroke="black" d="M777.53,-178.5C800.78,-186.57 825.63,-198.53 844,-216 869.51,-240.25 866.8,-254.31 877,-288 914.57,-412.06 912.75,-446.78 923,-576 924.27,-591.95 924.49,-596.07 923,-612 922.2,-620.52 920.7,-629.72 919.1,-638.01"/>
<polygon fill="black" stroke="black" points="917.06,-647.93 914.66,-637.23 918.07,-643.03 919.07,-638.13 919.07,-638.13 919.07,-638.13 918.07,-643.03 923.48,-639.04 917.06,-647.93 917.06,-647.93"/>
</g>
<!-- 16&#45;&gt;7 -->
<g id="edge53" class="edge">
<title>16&#45;&gt;7</title>
<path fill="none" stroke="black" d="M707.51,-180.1C694.95,-240.47 649.34,-448.67 586,-612 582.55,-620.89 578.18,-630.31 574.01,-638.71"/>
<polygon fill="black" stroke="black" points="569.44,-647.67 569.97,-636.72 571.71,-643.22 573.98,-638.76 573.98,-638.76 573.98,-638.76 571.71,-643.22 577.99,-640.8 569.44,-647.67 569.44,-647.67"/>
</g>
<!-- 16&#45;&gt;9 -->
<g id="edge54" class="edge">
<title>16&#45;&gt;9</title>
<path fill="none" stroke="black" d="M694.51,-180.23C672.16,-205.47 635,-254.95 635,-305 635,-305 635,-305 635,-379 635,-432.41 584.32,-474.32 546,-498.36"/>
<polygon fill="black" stroke="black" points="537.06,-503.8 543.26,-494.76 541.33,-501.2 545.6,-498.61 545.6,-498.61 545.6,-498.61 541.33,-501.2 547.94,-502.45 537.06,-503.8 537.06,-503.8"/>
</g>
<!-- 16&#45;&gt;10 -->
<g id="edge55" class="edge">
<title>16&#45;&gt;10</title>
<path fill="none" stroke="black" d="M644.48,-169.98C518.62,-187.41 251.08,-245.82 171,-432 133.11,-520.08 247.41,-603.93 311.59,-642.64"/>
<polygon fill="black" stroke="black" points="320.3,-647.8 309.4,-646.57 315.99,-645.25 311.69,-642.7 311.69,-642.7 311.69,-642.7 315.99,-645.25 313.99,-638.83 320.3,-647.8 320.3,-647.8"/>
</g>
<!-- 16&#45;&gt;12 -->
<g id="edge56" class="edge">
<title>16&#45;&gt;12</title>
<path fill="none" stroke="black" d="M715.87,-180.11C718.73,-190.45 722.3,-203.93 725,-216 741.58,-290.01 756.58,-378.27 763.68,-421.87"/>
<polygon fill="black" stroke="black" points="765.31,-431.95 759.27,-422.8 764.51,-427.02 763.71,-422.08 763.71,-422.08 763.71,-422.08 764.51,-427.02 768.16,-421.36 765.31,-431.95 765.31,-431.95"/>
</g>
<!-- 16&#45;&gt;14 -->
<g id="edge57" class="edge">
<title>16&#45;&gt;14</title>
<path fill="none" stroke="black" d="M777.59,-179.59C820.29,-190.23 875.73,-204.03 919.53,-214.95"/>
<polygon fill="black" stroke="black" points="929.26,-217.37 918.47,-219.32 924.41,-216.16 919.55,-214.95 919.55,-214.95 919.55,-214.95 924.41,-216.16 920.64,-210.59 929.26,-217.37 929.26,-217.37"/>
</g>
</g>
</svg>
